<?xml version="1.0" standalone="no"?>
<!DOCTYPE svg PUBLIC "-//W3C//DTD SVG 1.1//EN" "http://www.w3.org/Graphics/SVG/1.1/DTD/svg11.dtd" >
<svg xmlns="http://www.w3.org/2000/svg" xmlns:xlink="http://www.w3.org/1999/xlink" version="1.1">
<metadata>
Created by FontForge 20170731 at Tue May 18 14:32:21 2021
 By Aleksey,,,
</metadata>
<defs>
<font id="Enemy-" horiz-adv-x="1652" >
  <font-face 
    font-family="Enemy"
    font-weight="400"
    font-stretch="normal"
    units-per-em="2048"
    panose-1="0 0 0 0 0 0 0 0 0 0"
    ascent="1516"
    descent="-532"
    x-height="1294"
    cap-height="1636"
    bbox="61 -645 3058 2355"
    underline-thickness="0"
    underline-position="0"
    unicode-range="U+0020-2265"
  />
<missing-glyph horiz-adv-x="1024" 
d="M102 -532v2170h820v-2170h-820zM205 -430h614v1966h-614v-1966z" />
    <glyph glyph-name="T_T" unicode="TT" horiz-adv-x="2764" 
d="M657 391l13 785l-47 444l460 16l4 -419l-18 -455l8 -373l248 -33l6 -364l-901 2l8 362zM1702 391l12 785l-6 444l420 16l4 -419l-18 -455l8 -373l227 -33l6 -364l-880 2l8 362zM528 1626l4 -352l-223 -111l-207 -2l-41 473zM2236 1626l467 8l-41 -473l-206 2l-224 111z
M1192 1626l418 4l2 -399l-203 -68l-221 70z" />
    <glyph glyph-name="T_h" unicode="Th" horiz-adv-x="2887" 
d="M1518 391l32 600l-10 234l-139 -4l-199 67l-6 369l793 20l-21 -399l-39 -516l8 -373l119 -33l2 -358l-706 -4l8 362zM657 391l13 785l-47 444l460 16l4 -419l-18 -455l8 -373l187 -33l6 -364l-778 2l8 362zM528 1626l4 -352l-223 -111l-207 -2l-41 473zM2150 367l123 22
l8 545l-237 -4l4 276l233 101l304 -64l118 -217l-4 -637l119 -31l8 -356l-657 2z" />
    <glyph glyph-name="r_f" unicode="rf" horiz-adv-x="2166" 
d="M2105 1569l-135 -436l-291 32l2 512zM240 391l-4 504l-144 -10l-31 407l629 21l-37 -410l-2 -141l8 -373l201 -35v-358l-786 -2l8 362zM1143 1204l47 314l160 161l245 -2l-24 -399l14 -516l8 -373l230 -41l2 -358l-797 4l-12 362l158 35l-35 420l-11 139l-67 -166
l-318 -18l-2 291l213 166zM1677 1020l342 -31l-14 -338l-313 -20z" />
    <glyph glyph-name="r_t" unicode="rt" horiz-adv-x="2062" 
d="M240 391l-4 504l-144 -10l-31 407l629 21l-37 -410l-2 -141l8 -373l201 -35l41 -358l-827 -2l8 362zM1657 1278l293 18l12 -428l-322 31zM1223 -23l-140 347l17 481l-357 -39l-2 291l213 207l170 -70l-24 246l200 221l293 -16l-61 -818l27 -817zM1638 389l154 223
l248 -53l2 -565l-393 20z" />
    <glyph glyph-name=".notdef" horiz-adv-x="1024" 
d="M102 -532v2170h820v-2170h-820zM205 -430h614v1966h-614v-1966z" />
    <glyph glyph-name=".null" horiz-adv-x="0" 
 />
    <glyph glyph-name="nonmarkingreturn" horiz-adv-x="682" 
 />
    <glyph glyph-name="space" unicode=" " horiz-adv-x="532" 
 />
    <glyph glyph-name="exclam" unicode="!" horiz-adv-x="690" 
d="M61 1645l519 4l8 -697l-37 -358l-399 -19l-86 621zM307 459l271 -37l51 -369l-264 -59l-232 51l-10 328z" />
    <glyph glyph-name="quotedbl" unicode="&#x22;" horiz-adv-x="1112" 
d="M61 1608l306 75l116 -81l35 -457l-254 -297l-147 147l108 174l-155 27zM594 1608l305 75l117 -81l35 -457l-254 -297l-148 147l109 174l-156 27z" />
    <glyph glyph-name="numbersign" unicode="#" horiz-adv-x="1499" 
d="M1231 735v348h207l-6 -348h-201zM647 -4l-319 6l6 743l-273 3l2 329l275 -2l4 221l303 -2v-223l158 -2l-6 -324h-152zM63 180v371h209v-371h-209zM1397 188l-223 5v-197l-320 6l2 197l-154 2v334l156 -3l2 308l8 456l303 -2l3 -764l229 -2z" />
    <glyph glyph-name="dollar" unicode="$" horiz-adv-x="1296" 
d="M844 1171l-250 244l-21 209l-12 324l275 -9l-37 -325l303 -12l-47 -406zM186 1550l287 74l43 -412l649 -440l70 -401l-102 -297l-267 -117l-2 432l-676 445l-127 266zM803 -324l-275 -8l13 309l-422 35l14 473l244 -8l205 -223l182 -4l16 -293z" />
    <glyph glyph-name="percent" unicode="%" horiz-adv-x="2197" 
d="M395 1653l13 -350l-86 -140l90 -108l-2 -371l-342 223l-7 453zM508 684l-12 350l86 140l-90 108l2 371l342 -223l6 -453zM1610 1634l-359 -921l-307 -705l-424 -6l385 897l305 735h400zM1690 -20l-334 292l6 453l342 223l2 -370l-90 -109l86 -139zM1802 948l334 -293
l-6 -452l-342 -223l-2 370l90 109l-86 139z" />
    <glyph glyph-name="ampersand" unicode="&#x26;" horiz-adv-x="1873" 
d="M817 1688l410 -66l162 -356l-97 -283l-213 -92l-129 164l80 155l-153 84zM713 1176l485 -521l381 -512l-98 -147h-297l-445 575l-434 457l-2 348l258 295h170l51 -397zM1358 967l454 -2l-10 -338l-360 -125l24 145l-123 53zM336 854l129 -135l6 -234l45 -39l234 -67
l165 -213l-378 -168l-465 215l-11 432z" />
    <glyph glyph-name="quotesingle" unicode="'" horiz-adv-x="579" 
d="M61 1608l306 75l116 -81l35 -457l-254 -297l-147 147l108 174l-155 27z" />
    <glyph glyph-name="parenleft" unicode="(" horiz-adv-x="976" 
d="M70 1323l-9 350l598 -10l256 10l-6 -350l-379 8zM80 1247l350 2l19 -446l-386 4zM449 485l2 -446l-371 2l-17 440zM70 -35l460 -8l379 8l6 -350l-256 10l-598 -10z" />
    <glyph glyph-name="parenright" unicode=")" horiz-adv-x="976" 
d="M907 1323l-461 8l-378 -8l-7 350l256 -10l598 10zM528 803l19 446l350 -2l16 -440zM897 41l-371 -2l2 446l385 -4zM907 -35l8 -350l-598 10l-256 -10l7 350l378 -8z" />
    <glyph glyph-name="asterisk" unicode="*" horiz-adv-x="880" 
d="M131 1608l170 118l107 -223l-5 -266l-81 -188l-185 92l119 149l-186 -24l-9 190l189 -10zM750 1147l-170 -119l-101 203l-2 266l82 209l184 -92l-118 -152l186 21l8 -191l-188 13z" />
    <glyph glyph-name="plus" unicode="+" horiz-adv-x="1054" 
d="M713 186l-351 -12l11 295l-299 -10l-13 350l308 -10l-7 307l351 -6l-15 -297l295 6l-6 -350l-285 14z" />
    <glyph glyph-name="comma" unicode="," horiz-adv-x="661" 
d="M449 496l116 -82l35 -457l-274 -317l-209 167l108 175l-155 26l-9 412z" />
    <glyph glyph-name="hyphen" unicode="-" horiz-adv-x="870" 
d="M74 473l-13 350l392 -12l356 12l-6 -350l-350 19z" />
    <glyph glyph-name="period" unicode="." horiz-adv-x="679" 
d="M264 504l297 -39l57 -406l-290 -65l-254 55l-13 361z" />
    <glyph glyph-name="slash" unicode="/" horiz-adv-x="1110" 
d="M1049 1634l-351 -932l-233 -694l-404 -6l345 918l243 714h400z" />
    <glyph glyph-name="zero" unicode="0" horiz-adv-x="1273" 
d="M444 1651l144 -2l2 -406l-154 -242l8 -389l154 -223l-4 -387h-141l-381 352l-11 922zM829 2l-143 2l-2 406l180 186l-8 451l-160 196l-16 408h141l381 -353l10 -921z" />
    <glyph glyph-name="one" unicode="1" horiz-adv-x="1150" 
d="M61 1305l363 278l-33 -557l-205 -47zM446 412l13 784l26 399l283 58l129 -137l-20 -218l-19 -475l8 -413l221 -33l3 -379l-455 16l-477 -20l8 362z" />
    <glyph glyph-name="two" unicode="2" horiz-adv-x="1374" 
d="M1243 1198l-65 -321l-619 -488l-2 -397l-379 6l-84 473l369 297l336 262l-162 176l-8 445l250 2zM61 1505l484 148l4 -600l-350 -72zM645 369l199 20l155 154l314 28l-66 -571l-307 8l-311 -18z" />
    <glyph glyph-name="three" unicode="3" horiz-adv-x="1249" 
d="M1188 328l-438 -346l-127 18l-15 319l160 132l2 71l-285 185l-8 239l256 180l-10 91l-148 98l-10 340l168 28l420 -317l21 -147l-41 -287l-230 -94l223 -68zM61 1530l420 125l19 -512l-287 -45zM111 88l102 418h311l15 -512z" />
    <glyph glyph-name="four" unicode="4" horiz-adv-x="1472" 
d="M731 1642l369 15l35 -76l-224 -317l-415 -496l225 31l-6 -373l-531 -8l-123 385zM1346 276v-276l-719 4l4 295l164 66l4 251l4 367l282 344l82 88l2 -391l-4 -223l244 28l2 -387l-250 7v-89z" />
    <glyph glyph-name="five" unicode="5" horiz-adv-x="1298" 
d="M555 1632l682 21l-63 -475l-279 -7l-346 125zM217 1634l264 -2l6 -397l-8 -518l-176 -60l-231 117l-11 457l2 201zM588 1034l256 29l360 -195l-14 -647l-397 -196l-11 381l49 167l-258 148zM692 342l13 -322l-619 -10l-18 512l258 33l204 -178z" />
    <glyph glyph-name="six" unicode="6" horiz-adv-x="1409" 
d="M303 1425l678 256l158 -215l-4 -159l-455 -168l-156 -471l189 -512l-8 -172l-416 51l-228 659zM719 748l14 204l293 172l322 -282l-11 -598l-274 -269l-246 21l-6 149l90 158v393z" />
    <glyph glyph-name="seven" unicode="7" horiz-adv-x="1179" 
d="M1118 1634l-26 -315l-508 -51l-191 -144l-293 4l-39 517zM471 705l184 503l408 23l-203 -680l-131 -541l-412 -8l-112 186z" />
    <glyph glyph-name="eight" unicode="8" horiz-adv-x="1239" 
d="M561 1714l418 -22l199 -336l-72 -295l-172 -90l-137 112l26 179l-157 71zM930 47l-170 -18l-94 389l61 104l-143 86l-461 398l-39 346l223 319l172 21l92 -389l-61 -107l125 -111l477 -370l41 -348zM676 2l-418 25l-197 335l70 291l162 97l141 -129l-18 -185l162 -47z
" />
    <glyph glyph-name="nine" unicode="9" horiz-adv-x="1419" 
d="M1210 264l-702 -295l-293 207l57 154l559 213l62 473l-156 409l-16 254l405 -65l232 -576zM741 893l2 -223l-301 -140l-350 248l-31 572l304 301l268 6l4 -211l-117 -146l2 -331z" />
    <glyph glyph-name="colon" unicode=":" horiz-adv-x="679" 
d="M264 1200l297 -39l57 -405l-290 -66l-254 55l-13 361zM264 504l297 -39l57 -406l-290 -65l-254 55l-13 361z" />
    <glyph glyph-name="semicolon" unicode=";" horiz-adv-x="706" 
d="M264 1200l297 -39l57 -405l-290 -66l-254 55l-13 361zM494 496l116 -82l35 -457l-274 -317l-209 167l108 175l-155 26l-9 412z" />
    <glyph glyph-name="less" unicode="&#x3c;" horiz-adv-x="903" 
d="M836 1169l6 -344l-498 -157l494 -154l-15 -377l-446 189l-301 149l-15 416l330 113z" />
    <glyph glyph-name="equal" unicode="=" horiz-adv-x="1157" 
d="M74 721l-13 350l392 -12l643 12l-6 -350l-392 18zM1083 270l-624 19l-391 -19l-7 351l644 -13l391 13z" />
    <glyph glyph-name="greater" unicode="&#x3e;" horiz-adv-x="903" 
d="M68 1169l444 -165l330 -113l-15 -416l-301 -149l-446 -189l-14 377l493 154l-498 157z" />
    <glyph glyph-name="question" unicode="?" horiz-adv-x="1196" 
d="M737 1659l369 -270l29 -445l-207 -237l-283 -19l4 -176h-330l-55 182l43 281l447 119l-2 94l-185 108l2 340zM61 1530l424 108l2 -512l-290 -32zM424 438l270 -37l51 -368l-264 -60l-231 52l-10 327z" />
    <glyph glyph-name="at" unicode="@" horiz-adv-x="2295" 
d="M526 1587l750 107l12 -277l-569 -94l-348 -633l268 -698l553 53l172 -115l2 -116l-752 -60l-239 119l-314 858zM2154 217l-598 -330l-307 228l33 534l6 481l119 136l356 -17l47 -424l-139 -18l-12 -430l6 -160l229 131l64 438l-86 517l-492 118l-8 267l742 -150l120 -752
zM1047 1257l180 -30l-45 -361l-215 -51l34 -303l158 -37l-10 -297l-432 -22l-187 518l275 553z" />
    <glyph glyph-name="A" unicode="A" horiz-adv-x="1837" 
d="M836 1190l-113 455l424 10l196 -658l232 -608l174 -63l27 -326l-848 -6l-6 315l149 80zM772 322l25 -326h-736l41 334l174 59l166 365l138 362l-252 -8l30 498l260 26l138 -514l61 -166l-100 -221l135 -24l43 -164l-223 14l-54 -166z" />
    <glyph glyph-name="B" unicode="B" horiz-adv-x="1560" 
d="M227 391l13 805l-144 -10l-26 430l583 20l4 -399l-18 -475l8 -373l6 -391l-592 -4l9 362zM782 1630l359 -24l272 -211l-67 -404l-181 -172l189 -84l145 -424l-221 -354l-543 41l-6 334l350 2l-32 143l-295 162l2 303l290 254l-286 47z" />
    <glyph glyph-name="C" unicode="C" horiz-adv-x="1447" 
d="M651 1632l168 -22l-8 -445l-291 -270l15 -250l309 -207l-8 -461l-484 84l-291 486l62 631zM1386 1464l-137 -524l-350 72l4 600zM1382 33l-456 -58l4 486l330 26z" />
    <glyph glyph-name="D" unicode="D" horiz-adv-x="1566" 
d="M227 391l13 805l-144 -10l-26 430l583 20l4 -399l-18 -475l8 -373l6 -391l-592 -4l9 362zM762 1628l446 -31l297 -507l-26 -740l-394 -393l-329 39l-11 393l271 146l-10 489l-261 129z" />
    <glyph glyph-name="E" unicode="E" horiz-adv-x="1445" 
d="M782 1626l529 29l-41 -473l-207 2l-285 110zM248 391l12 785l-164 10l-26 430l206 6l398 14l4 -399l-19 -475l9 -373l6 -391l-426 -2l-187 -2l9 362zM778 727v201l213 123l217 6l-6 -453l-213 -16zM754 340l309 135l321 -22l-49 -496l-581 45v338z" />
    <glyph glyph-name="F" unicode="F" horiz-adv-x="1351" 
d="M762 1626l528 29l-41 -473l-207 2l-284 110zM227 391l13 805l-144 -10l-26 430l583 20l4 -399l-18 -475l18 -373l203 -37l29 -350l-828 -8l9 362zM758 727v201l213 123l217 6l-6 -453l-213 -16z" />
    <glyph glyph-name="G" unicode="G" horiz-adv-x="1644" 
d="M692 1632l209 -22l-8 -445l-332 -270l14 -250l310 -207l-45 -438l-447 61l-332 486l62 631zM1468 1464l-137 -524l-350 72l4 600zM909 825l674 13l-24 -426l-173 -23l33 -608l-92 -43l-387 108l74 625l-107 199z" />
    <glyph glyph-name="H" unicode="H" horiz-adv-x="1865" 
d="M1169 391l13 805l-164 10l-6 410l772 20l4 -399l-191 -41l29 -428l-16 -358l194 -78l-4 -334l-817 -4l8 362zM879 -2l-818 -4l9 362l178 35l12 805l-164 10l-6 410l772 20l4 -399l-190 -41l16 -252h170l197 19l6 -324l-227 29l-138 -2l-12 -256l195 -78z" />
    <glyph glyph-name="I" unicode="I" horiz-adv-x="944" 
d="M248 391l6 385l6 420l-164 10l-6 410l772 20l4 -399l-190 -41l29 -428l-17 -358l195 -78l-4 -334l-818 -4l9 362z" />
    <glyph glyph-name="J" unicode="J" horiz-adv-x="1169" 
d="M682 2l-96 555l20 625l-272 -47l-27 503l322 11l436 6l-35 -705l78 -585zM326 401l204 -145l54 -301l-508 47l-15 399h265z" />
    <glyph glyph-name="K" unicode="K" horiz-adv-x="1755" 
d="M938 1634l567 2l-22 -391l-355 -217l-12 143l-168 82zM248 391l12 805l-164 10l-6 410l772 20l4 -399l-190 -41l29 -428l-17 -358l195 -78l-4 -334l-818 -4l9 362zM793 707l258 294l454 -585l115 -21l74 -385l-678 -6l-33 334l109 43z" />
    <glyph glyph-name="L" unicode="L" horiz-adv-x="1404" 
d="M248 391l12 805l-164 10l-6 410l772 20l4 -399l-190 -41l29 -428l-17 -358l-29 -414l-598 -2l9 362zM774 340l289 135l280 -22l-49 -496l-520 45v338z" />
    <glyph glyph-name="M" unicode="M" horiz-adv-x="2228" 
d="M1532 391l12 805l-37 422l639 18l4 -399l-190 -41l29 -428l-17 -358l195 -78l-4 -334l-817 -4l8 362zM141 1634l660 -6l329 -887l291 664l25 -541l-184 -440l-129 -406l-209 7l-226 561l-284 583l-271 54zM61 -2v395l187 58l31 206l22 283l119 -27l63 -272l35 -190
l176 -70l31 -377z" />
    <glyph glyph-name="N" unicode="N" horiz-adv-x="1751" 
d="M1485 954h-135l-80 222l-213 86l-31 376l664 7v-396l-158 -75zM1151 936l324 -356l2 -537l-293 -6l-406 510l-372 608l-283 45l-39 434l676 -6zM61 -2v395l187 58l31 206l22 283h141l41 -299l35 -190l176 -70l31 -377z" />
    <glyph glyph-name="O" unicode="O" horiz-adv-x="1748" 
d="M1135 -6l-168 18l-9 445l283 299l-22 207l-318 217l-8 460l485 -65l310 -475l-41 -631zM614 1632l168 -16l9 -445l-283 -280l22 -207l318 -238l8 -460l-487 67l-308 473l41 635z" />
    <glyph glyph-name="P" unicode="P" horiz-adv-x="1536" 
d="M1120 444l-307 146l6 278l197 37l-8 410l-213 96l6 199l397 76l277 -218l-43 -761zM700 1661l7 -227l-13 -557l19 -496l196 -84v-340l-155 6v-2l-693 -6l7 383l206 63l-12 846l-147 21l-13 370z" />
    <glyph glyph-name="Q" unicode="Q" horiz-adv-x="1748" 
d="M614 76l-512 475l-41 549l310 475l485 65l-8 -460l-318 -217l-16 -140l277 -284l-9 -445zM1135 1632l512 -471l41 -553l-308 -473l-487 -67l8 460l316 142l24 221l-283 280l9 445zM739 6l357 -76h374l31 -194l-375 -303l-481 274l-43 180z" />
    <glyph glyph-name="R" unicode="R" horiz-adv-x="1622" 
d="M915 -14l7 350l88 49l-193 233l2 291l197 140l-8 163l-193 117l-14 342l397 -26l236 -279l-43 -557l-220 -119l211 -272l160 -86l19 -346h-646zM700 1681l7 -247l-13 -557l19 -467l135 -84l-21 -340l-73 6v-2l-693 -6l7 383l206 63l-12 817l-147 21l-13 411z" />
    <glyph glyph-name="S" unicode="S" horiz-adv-x="1296" 
d="M606 1624l516 -22l-47 -406l-211 -25l-250 244zM186 1550l328 74l23 -412l628 -440l70 -401l-102 -297l-308 -117l-2 432l-635 445l-127 266zM582 254l141 -4l16 -293l-620 55l14 473l244 -8z" />
    <glyph glyph-name="T" unicode="T" horiz-adv-x="1720" 
d="M657 391l13 785l-47 444l460 16l4 -419l-18 -455l8 -373l187 -33l6 -364l-778 2l8 362zM1192 1626l467 8l-41 -473l-207 2l-223 111zM528 1626l4 -352l-223 -111l-207 -2l-41 473z" />
    <glyph glyph-name="U" unicode="U" horiz-adv-x="1736" 
d="M690 698v-340l182 -161l-10 -238l-364 31l-316 305l41 381l8 520l-163 10l-7 410l773 20l4 -430l-191 -10zM1520 682l-39 -494l-301 -231h-189l4 236l166 196l43 764l-233 47l-6 410l706 26l4 -399l-176 -41z" />
    <glyph glyph-name="V" unicode="V" horiz-adv-x="1720" 
d="M766 -18l-461 1218l-213 4l-31 428l611 10l491 -1366l-92 -280zM1094 1640l565 -2l-14 -352l-273 -362l-86 272l-217 90z" />
    <glyph glyph-name="W" unicode="W" horiz-adv-x="2486" 
d="M1614 -18l-365 909l-96 309l-213 4l-31 428l611 10l333 -831l158 -535l-92 -280zM786 -18l-163 462l-150 385l-168 371l-213 4l-31 428l611 10l329 -825l222 -561l-131 -260zM1860 1640l565 -2l-15 -352l-303 -403l-65 274l-217 90z" />
    <glyph glyph-name="X" unicode="X" horiz-adv-x="1529" 
d="M934 1640l508 -2l2 -411l-299 -228l-8 215l-228 78zM967 10l-650 1213l-225 6l-31 397l570 10l635 -1237l202 -32l-6 -369zM690 6l-563 -18l-2 411l354 248l8 -215l181 -67z" />
    <glyph glyph-name="Y" unicode="Y" horiz-adv-x="1576" 
d="M399 -12l11 354l161 47l19 273l-285 532l-213 25l-31 407l578 10l401 -833l23 -414l213 -45l10 -344zM950 1634l566 -2l-15 -352l-393 -279l16 203l-161 127z" />
    <glyph glyph-name="Z" unicode="Z" horiz-adv-x="1288" 
d="M680 1638l311 4l158 -75l18 -348l-344 -504l-235 -412v-301h-459l-23 330l269 542l346 504zM606 1628v-160l-274 -284l-230 12l-41 444zM1227 -12l-537 14l10 248l228 196h278z" />
    <glyph glyph-name="bracketleft" unicode="[" horiz-adv-x="788" 
d="M721 342l6 -350l-256 10h-12v-4l-103 2l-278 -8v10h-4l-13 846l5 475l12 350l393 -10l256 10l-6 -350l-174 8l-107 -2l-12 -498l18 -495l101 -2z" />
    <glyph glyph-name="backslash" unicode="\" horiz-adv-x="1110" 
d="M61 1634h400l244 -714l344 -918l-404 6l-233 694z" />
    <glyph glyph-name="bracketright" unicode="]" horiz-adv-x="788" 
d="M68 342l174 -8l100 2l18 495l-12 498l-106 2l-174 -8l-7 350l256 -10l394 10l12 -350l4 -475l-12 -846h-4v-10l-279 8l-102 -2v4h-13l-256 -10z" />
    <glyph glyph-name="asciicircum" unicode="^" horiz-adv-x="1155" 
d="M1094 872l-344 -6l-158 498l-154 -494l-377 15l189 446l149 301l416 15l113 -330z" />
    <glyph glyph-name="underscore" unicode="_" horiz-adv-x="1054" 
d="M74 -346l-13 350l392 -12l540 12l-6 -350l-391 18z" />
    <glyph glyph-name="grave" unicode="`" horiz-adv-x="684" 
d="M317 2310l306 -440l-217 -129l-345 352z" />
    <glyph glyph-name="a" unicode="a" horiz-adv-x="1413" 
d="M109 1239l430 117l-21 -453l-282 -12zM633 1341l360 2l221 -110l-26 -850l164 -23l-6 -360l-359 -43l-227 281l51 700l-197 68zM666 811l14 -254l-193 -65l13 -185l137 -6l141 -303l-483 -41l-234 309l117 518z" />
    <glyph glyph-name="b" unicode="b" horiz-adv-x="1492" 
d="M225 391l13 846l-144 -10l-26 430l628 20l-41 -399l-18 -516l12 -557l105 -207l-693 -45l7 409zM762 891l-6 307l313 131l363 -303l-62 -897l-223 -174l-328 82l-47 149l213 158v537z" />
    <glyph glyph-name="c" unicode="c" horiz-adv-x="1277" 
d="M541 1331l168 -22l2 -340l-205 -314l18 -94l178 -213v-405l-372 129l-269 360l70 567zM1217 1202l-136 -436l-290 33l2 512zM1217 49l-424 -108l-7 399l291 33z" />
    <glyph glyph-name="d" unicode="d" horiz-adv-x="1474" 
d="M836 -18l-7 227l13 557l-19 516l-176 84v320l135 -7v2l465 -14l-6 -426l12 -846l148 -20l12 -371zM416 1300l307 -145l-6 -278l-176 4l8 -553l192 -97l-6 -198l-397 -76l-277 217l43 864z" />
    <glyph glyph-name="e" unicode="e" horiz-adv-x="1417" 
d="M811 1354l426 -146l119 -436l-101 -268l-495 -49l-51 252l305 120l-209 113zM717 1354l-4 -369l-158 -328l160 -346l-4 -362l-369 49l-281 676l308 612zM819 299l273 115l231 -60l-70 -354l-442 -43z" />
    <glyph glyph-name="f" unicode="f" horiz-adv-x="1314" 
d="M322 391l-19 256l-225 8l-17 412l226 14l51 437l160 161l245 -2l-24 -399l14 -516l8 -373l230 -41l2 -358l-817 4l8 362zM1253 1569l-135 -436l-291 32l2 512zM825 1020l342 -31l-14 -338l-313 -20z" />
    <glyph glyph-name="g" unicode="g" horiz-adv-x="1460" 
d="M715 557l6 -307l-334 -133l-326 303l43 680l263 248l346 -150l2 -172l-170 -108l-15 -332zM1198 879l19 -725l43 -222l-207 -276l-240 -107l49 428l-45 652l-12 413l16 244l578 6l-13 -407zM743 -70l-28 -368l-547 12l-82 475l330 -4z" />
    <glyph glyph-name="h" unicode="h" horiz-adv-x="1597" 
d="M227 391l13 846l-144 -10l-26 430l628 20l-41 -399l-18 -516l8 -373l119 -33l2 -358l-707 -4l9 362zM860 367l123 22l8 545l-237 -4l4 276l233 101l303 -64l119 -217l-4 -637l119 -31l8 -356l-657 2z" />
    <glyph glyph-name="i" unicode="i" horiz-adv-x="894" 
d="M342 1831l270 -37l52 -369l-265 -59l-231 51l-10 328zM254 391l-4 422l-144 -10l-45 420l629 20l-4 -340l-2 -141l8 -373l139 -33l3 -358l-746 -4l8 362z" />
    <glyph glyph-name="j" unicode="j" horiz-adv-x="1196" 
d="M731 1878l270 -37l52 -368l-265 -60l-231 51l-10 328zM729 -545l-96 617l20 706l-170 15l-47 483l219 10l437 6l6 -848l37 -544l-248 -224zM373 -145l205 -125l14 -322l-531 47l27 400h285z" />
    <glyph glyph-name="k" unicode="k" horiz-adv-x="1591" 
d="M227 391l13 846l-144 -10l-26 430l628 20l-41 -399l-18 -516l-12 -373l118 -33l3 -358l-687 -4l9 362zM815 1380l567 37l-43 -405l-344 -109l19 146l-189 20zM731 664l187 223l444 -451l135 -41l33 -385l-623 -6l-33 334l93 51z" />
    <glyph glyph-name="l" unicode="l" horiz-adv-x="829" 
d="M227 391l13 846l-144 -10l-26 430l628 20l-41 -399l-18 -516l8 -373l119 -33l2 -358l-707 -4l9 362z" />
    <glyph glyph-name="m" unicode="m" horiz-adv-x="2299" 
d="M240 391l-4 504l-144 -10l-31 407l629 21l-37 -410l-2 -141l8 -373l119 -33l2 -358l-706 -4l8 362zM881 367l92 22l8 545l-238 -4l5 194l233 183l303 -64l119 -217l-4 -637l119 -31l8 -356l-627 2zM1593 367l93 22l8 545l-197 -2l-49 188l246 187l303 -64l119 -217
l-5 -637l119 -31l8 -356l-626 2z" />
    <glyph glyph-name="n" unicode="n" horiz-adv-x="1609" 
d="M240 391l-4 504l-144 -10l-31 407l629 21l-37 -410l-2 -141l8 -373l119 -33l2 -358l-706 -4l8 362zM872 367l123 22l9 545l-238 -4l4 215l234 162l303 -64l118 -217l-4 -637l119 -31l8 -356l-657 2z" />
    <glyph glyph-name="o" unicode="o" horiz-adv-x="1507" 
d="M754 1305l336 -9l342 -571l14 -289l-305 -446l-310 14v350l130 283l-191 246zM664 1298l14 -407l-162 -281l211 -229l12 -385l-254 -6l-409 399l-15 397l351 504z" />
    <glyph glyph-name="p" unicode="p" horiz-adv-x="1492" 
d="M1040 -43l-284 98l6 307l235 -4l9 547l-228 53l-14 285l338 74l268 -193l62 -911zM225 862l-157 29l-7 409l586 -6l2 -245l-12 -557l18 -517l41 -399l-628 21l26 430l144 -11z" />
    <glyph glyph-name="q" unicode="q" horiz-adv-x="1533" 
d="M748 406l6 -308l-314 -131l-362 303l-17 844l301 227l328 -81l47 -150l-207 -147v-537zM1284 905l-12 -846l143 11l27 -430l-629 -21l41 399l18 517l-12 557l-65 256l678 -50l-54 -403z" />
    <glyph glyph-name="r" unicode="r" horiz-adv-x="1312" 
d="M240 391l-4 504l-144 -10l-31 407l629 21l-37 -410l-2 -141l8 -373l222 -35l20 -358l-827 -2l8 362zM743 745l-2 271l234 260l276 -221l-186 -312z" />
    <glyph glyph-name="s" unicode="s" horiz-adv-x="1290" 
d="M190 1274l283 57l23 -391l616 -213l117 -377l-180 -356l-261 -37l25 432l-631 203l-121 342zM565 1331l533 -28l43 -404l-195 -25l-330 177zM502 283l215 -33l-25 -293l-598 51l43 432h199z" />
    <glyph glyph-name="t" unicode="t" horiz-adv-x="1263" 
d="M754 1645l-62 -818l27 -817l-357 -53l-159 367l73 557l-206 26l-9 336l297 105l103 313zM817 1278l293 18l12 -428l-321 31zM799 389l153 223l248 -53l2 -565l-393 20z" />
    <glyph glyph-name="u" unicode="u" 
d="M1413 915l4 -383l-20 -161l164 51l30 -408l-628 -20l36 409l2 142l-8 373l-151 -48l-6 445l659 35zM723 1348l-55 -422l-29 -596l238 4l-5 -277l-233 -100l-303 63l-119 218l59 624l-215 2l23 428z" />
    <glyph glyph-name="v" unicode="v" horiz-adv-x="1576" 
d="M702 -18l-397 878l-213 25l-31 407l611 11l428 -1027l-92 -280zM950 1300l566 -2l-15 -352l-327 -313l-50 258l-194 98z" />
    <glyph glyph-name="w" unicode="w" horiz-adv-x="2242" 
d="M1409 -18l-356 872l-142 31l-65 407l510 11l424 -965l-66 -342zM1616 1300l565 -2l-14 -352l-301 -313l-76 258l-195 98zM662 -25l-377 879l-193 25l-31 407l570 10l387 -964l-51 -342z" />
    <glyph glyph-name="x" unicode="x" horiz-adv-x="1476" 
d="M913 10l-596 873l-225 6l-31 397l570 10l311 -524l270 -373l203 -32l-6 -369zM903 1288l512 -2l-35 -360l-338 -119l-2 127l-141 98zM637 6l-508 2l-2 350l283 193l28 -162l180 -67z" />
    <glyph glyph-name="y" unicode="y" horiz-adv-x="1576" 
d="M698 139l-393 721l-213 25l-31 407l611 11l424 -869l-92 -280zM950 1300l566 -2l-15 -352l-327 -313l-50 258l-194 98zM983 37l-49 -217l-291 -328l-373 186l43 246z" />
    <glyph glyph-name="z" unicode="z" horiz-adv-x="1202" 
d="M614 1290l312 4l155 -51l19 -348l-543 -631l-14 -262h-459l-23 330l594 698zM541 1280v-160l-207 -229l-230 12l-26 379zM1141 4l-496 -2l10 248l207 143h279v-389z" />
    <glyph glyph-name="braceleft" unicode="{" horiz-adv-x="786" 
d="M326 1640l399 -10l-2 -334l-242 11l113 -373l-176 -96l186 -127l-141 -355l239 17l9 -367l-457 8l-127 271l121 374l-187 35l9 314l202 39l-122 378z" />
    <glyph glyph-name="bar" unicode="|" horiz-adv-x="481" 
d="M420 1661l-17 -713l-4 -147l2 -115l11 -721l-351 -6l15 743l4 222l-10 749z" />
    <glyph glyph-name="braceright" unicode="}" horiz-adv-x="786" 
d="M63 1296l-2 334l400 10l176 -215l-123 -378l203 -39l8 -314l-186 -35l120 -374l-127 -271l-456 -8l8 367l240 -17l-142 355l187 127l-176 96l112 373z" />
    <glyph glyph-name="asciitilde" unicode="~" horiz-adv-x="1193" 
d="M61 836l365 266l283 -213l223 190l201 -258l-412 -303l-264 225l-183 -159z" />
    <glyph glyph-name="exclamdown" unicode="&#xa1;" horiz-adv-x="690" 
d="M307 1184l-184 86l10 327l232 52l264 -60l-51 -368zM61 -2l5 448l86 621l399 -18l37 -359l-8 -696z" />
    <glyph glyph-name="cent" unicode="&#xa2;" horiz-adv-x="1144" 
d="M969 926l-277 26l2 242l-35 446l271 -2l-21 -321l170 -39zM492 1384l135 -18l2 -274l-166 -256l14 -76l146 -172v-328l-344 105l-218 290l58 459zM659 -4l33 428l-2 156l281 36l112 -280l-178 -45l25 -293z" />
    <glyph glyph-name="sterling" unicode="&#xa3;" horiz-adv-x="1411" 
d="M1278 1550l-135 -436l-291 33l2 512zM952 883l371 18v-303l-367 27zM375 -43l-160 260l272 397l-421 -34l-5 319l402 -33l-277 181l58 364l358 268l168 -22l2 -340l-184 -148l291 -288l8 -248l-318 -662zM760 199l244 237l346 -47l-160 -432l-522 51z" />
    <glyph glyph-name="currency" unicode="&#xa4;" horiz-adv-x="1478" 
d="M227 1014l-166 121l224 266l137 -180l276 61v-313l-153 -60l-68 -209l-315 9zM1251 1014l64 -322l-316 10l-65 207l-154 60v313l275 -61l139 180l223 -266zM1231 315l186 -120l-223 -267l-139 181l-275 -62v313l154 60l65 188l316 -8zM248 315l-86 301l315 -10l68 -186
l153 -60v-313l-276 62l-137 -181l-224 267z" />
    <glyph glyph-name="yen" unicode="&#xa5;" horiz-adv-x="1576" 
d="M950 1634l566 -2l-15 -352l-393 -279l16 203l-161 127zM1106 723v178l360 37l-4 -219zM379 -12l10 354l162 47l4 70l-162 6l-233 -12l-2 209l381 -11l30 2v9l-34 71h-3l-368 -14l-6 209l231 -8l51 2l-135 272l-213 25l-31 407l578 10l381 -833l22 -414l213 -45l11 -344z
M1110 451l2 208l354 3l-10 -224z" />
    <glyph glyph-name="brokenbar" unicode="&#xa6;" horiz-adv-x="481" 
d="M408 903l-338 15v755l350 -12zM76 723l325 6l11 -764l-351 -6z" />
    <glyph glyph-name="section" unicode="&#xa7;" horiz-adv-x="1345" 
d="M637 1647l475 10l51 -418l-170 -27l-305 203zM297 1604l258 43l68 -363l544 -237l117 -299l-84 -156h-96l-197 160l-577 284l-137 285zM188 1087l82 -129l201 -90l438 -239l226 -201l-76 -326l-248 -82l-53 297l-576 265l-121 284zM485 291l199 -25l35 -264l-596 2
l-6 432l229 6z" />
    <glyph glyph-name="dieresis" unicode="&#xa8;" horiz-adv-x="966" 
d="M66 2068l202 52l170 -70l8 -264l-188 -43l-197 47zM897 2077l8 -265l-149 -69l-219 31l-23 278l195 68z" />
    <glyph glyph-name="copyright" unicode="&#xa9;" horiz-adv-x="1005" 
d="M326 1700l186 2v-158l-106 -20l-130 -162l13 -215l127 -125l121 -23l-7 -147l-196 -10l-262 211l-11 389zM592 1702l233 -49l119 -203v-346l-125 -195l-223 -51l4 139l160 74l-62 141l-147 -73l-98 53l-9 137l95 76l16 -107l145 -10l25 207l-141 41z" />
    <glyph glyph-name="ordfeminine" unicode="&#xaa;" horiz-adv-x="509" 
d="M76 1729l129 34l-6 -137l-84 -2zM233 1759h109l66 -33l-9 -256l50 -6l-3 -108l-106 -13l-70 84l17 209l-60 21zM244 1599l4 -75l-60 -21l5 -55l40 -2l43 -90l-145 -13l-70 93l35 155z" />
    <glyph glyph-name="guillemotleft" unicode="&#xab;" horiz-adv-x="1107" 
d="M336 301l-275 410l285 399l195 -182l-179 -234l193 -231zM1047 463l-220 -162l-274 410l285 399l194 -182l-178 -234z" />
    <glyph glyph-name="logicalnot" unicode="&#xac;" horiz-adv-x="1423" 
d="M1350 537l-568 10l-714 -10l-7 432l562 -13l739 13zM885 -2l20 448l434 -2l19 -442z" />
    <glyph glyph-name="registered" unicode="&#xae;" horiz-adv-x="1069" 
d="M424 827l-209 45l-154 211l2 390l259 229l178 -2v-115l-213 -22l-19 -197h68l-2 -238l-72 -8l-8 -137l281 -6l10 139l-49 12l10 103h24l99 -113l-49 -4l-5 -143l68 -4l-12 -123zM899 897l-219 -53l4 127l129 2l8 151l-92 19l-90 131l72 14l59 72l-43 188l-174 35l2 119
l41 -2l225 -49l144 -203l43 -221z" />
    <glyph glyph-name="macron" unicode="&#xaf;" horiz-adv-x="761" 
d="M82 2068l278 7l320 -21l20 -297l-278 25l-361 -15z" />
    <glyph glyph-name="degree" unicode="&#xb0;" horiz-adv-x="565" 
d="M209 1702h57v-158l-57 -90v-96l59 -86v-148h-55l-147 136l-5 301zM356 1124h-53v156l68 74l-4 116l-60 74l-8 158h57l146 -135l2 -297z" />
    <glyph glyph-name="plusminus" unicode="&#xb1;" horiz-adv-x="1054" 
d="M993 111l-540 12l-392 -12l13 329l291 -10l8 223l-299 -10l-13 330l308 -10l-7 307l351 -6l-15 -297l295 6l-6 -330l-285 14l9 -229l276 12z" />
    <glyph glyph-name="acute" unicode="&#xb4;" horiz-adv-x="684" 
d="M367 2310l256 -217l-344 -352l-218 129z" />
    <glyph glyph-name="uni00B5" unicode="&#xb5;" 
d="M1413 915l4 -383l-20 -161l164 51l30 -408l-628 -20l36 409l2 142l-8 373l-151 -48l-6 445l659 35zM723 1348l-55 -422l-29 -596l238 4l-5 -334l-258 12l50 -483l-449 2l14 279l50 225l-43 282l65 572l-240 -25l23 428z" />
    <glyph glyph-name="paragraph" unicode="&#xb6;" horiz-adv-x="1536" 
d="M889 1671l346 4l4 -151l8 -1143l226 -70l2 -311l-594 -4zM469 1675l297 -8l-27 -295l-10 -213l-6 -278l10 -867l-604 -18l-10 315l278 84v373l-336 145l2 590z" />
    <glyph glyph-name="periodcentered" unicode="&#xb7;" horiz-adv-x="679" 
d="M264 934l297 -39l57 -406l-290 -65l-254 55l-13 361z" />
    <glyph glyph-name="cedilla" unicode="&#xb8;" horiz-adv-x="600" 
d="M84 -111l29 172l161 15l23 -176l166 -25l76 -217l-131 -197l-347 15l11 205l250 -35v78l-191 28z" />
    <glyph glyph-name="ordmasculine" unicode="&#xba;" horiz-adv-x="538" 
d="M242 1745l4 -121l-64 -86l80 -49l2 -135l-76 -2l-122 121l-5 118l105 152zM268 1741l103 4l102 -172l4 -86l-92 -135l-98 6v98l45 84l-58 80z" />
    <glyph glyph-name="guillemotright" unicode="&#xbb;" horiz-adv-x="1107" 
d="M61 463l193 231l-178 234l194 182l285 -399l-274 -410zM772 301l-219 162l192 231l-178 234l195 182l285 -399z" />
    <glyph glyph-name="onequarter" unicode="&#xbc;" horiz-adv-x="1622" 
d="M293 920l6 469l16 239l170 35l78 -82l-12 -131l-12 -285l6 -247l-139 -238l-287 -12l6 217zM1335 1628l-915 -1620l-301 -6l530 969l348 657h338zM61 1454l218 168l-19 -334l-123 -28zM1116 1038l258 -45v-106l-112 -129l-230 -297l115 18l-4 -223l-318 -6l-57 188z
M1522 166v-166l-430 2l2 178l98 39l2 152l2 219l170 207l49 -9l2 -174l-2 -135l146 19v-232l-150 2v-51z" />
    <glyph glyph-name="onehalf" unicode="&#xbd;" horiz-adv-x="1687" 
d="M293 920l6 469l16 239l170 35l78 -82l-12 -131l-12 -285l6 -247l-139 -238l-287 -12l6 217zM1335 1628l-530 -938l-344 -682l-322 -6l510 969l348 657h338zM61 1454l218 168l-19 -334l-123 -28zM1583 719l-39 -193l-370 -293l-3 -237l-227 2l-49 285l221 178l201 157
l-96 105l-7 268h150zM889 692l135 269l141 30l2 -360l-252 -43zM1225 221l118 12l95 93l188 16l-41 -342l-184 4l-187 -10z" />
    <glyph glyph-name="threequarters" unicode="&#xbe;" horiz-adv-x="1720" 
d="M684 989l-186 -323l-101 10l-8 192l76 78l2 43l-152 111l-4 143l154 109l-6 53l-88 59l-6 205l100 17l252 -191l12 -88l-24 -172l-138 -57l133 -39zM61 1593l252 76l11 -307l-172 -27zM1434 1628l-895 -1620l-301 -6l530 969l348 657h318zM1235 1038l238 -45v-106
l-113 -129l-230 -297l115 18l-4 -223l-317 -6l-58 188zM90 729l62 250h188l8 -307zM1620 166v-166l-430 2l2 178l98 39l2 152l2 219l170 207l49 -9l3 -174l-3 -135l146 19v-232l-150 2v-51z" />
    <glyph glyph-name="questiondown" unicode="&#xbf;" horiz-adv-x="1196" 
d="M772 1194l-270 37l-51 368l264 60l231 -51l10 -328zM459 -27l-369 271l-29 444l207 238l283 18l-4 176h330l55 -182l-43 -281l-447 -118l2 -95l185 -108l-2 -340zM1135 102l-424 -108l-2 512l290 33z" />
    <glyph glyph-name="Agrave" unicode="&#xc0;" horiz-adv-x="1837" 
d="M625 2310l305 -440l-217 -129l-344 352zM856 1190l-113 455l424 10l197 -658l231 -608l174 -63l27 -326l-848 -6l-6 315l150 80zM793 322l24 -326h-735l41 334l174 59l166 365l137 362l-252 -8l31 498l260 26l137 -514l62 -166l-101 -221l135 -24l43 -164l-223 14
l-53 -166z" />
    <glyph glyph-name="Aacute" unicode="&#xc1;" horiz-adv-x="1837" 
d="M838 2310l256 -217l-344 -352l-218 129zM856 1190l-113 455l424 10l197 -658l231 -608l174 -63l27 -326l-848 -6l-6 315l150 80zM793 322l24 -326h-735l41 334l174 59l166 365l137 362l-252 -8l31 498l260 26l137 -514l62 -166l-101 -221l135 -24l43 -164l-223 14
l-53 -166z" />
    <glyph glyph-name="Acircumflex" unicode="&#xc2;" horiz-adv-x="1837" 
d="M451 1923l342 229l331 -237l-151 -162l-195 148l-192 -160zM856 1190l-113 455l424 10l197 -658l231 -608l174 -63l27 -326l-848 -6l-6 315l150 80zM793 322l24 -326h-735l41 334l174 59l166 365l137 362l-252 -8l31 498l260 26l137 -514l62 -166l-101 -221l135 -24
l43 -164l-223 14l-53 -166z" />
    <glyph glyph-name="Atilde" unicode="&#xc3;" horiz-adv-x="1837" 
d="M369 1917l260 219l289 -121l94 111l196 -148l-223 -223l-332 113l-141 -137zM856 1190l-113 455l424 10l197 -658l231 -608l174 -63l27 -326l-848 -6l-6 315l150 80zM793 322l24 -326h-735l41 334l174 59l166 365l137 362l-252 -8l31 498l260 26l137 -514l62 -166
l-101 -221l135 -24l43 -164l-223 14l-53 -166z" />
    <glyph glyph-name="Adieresis" unicode="&#xc4;" horiz-adv-x="1837" 
d="M373 2068l202 52l170 -70l9 -264l-189 -43l-196 47zM1204 2077l8 -265l-149 -69l-219 31l-23 278l195 68zM856 1190l-113 455l424 10l197 -658l231 -608l174 -63l27 -326l-848 -6l-6 315l150 80zM793 322l24 -326h-735l41 334l174 59l166 365l137 362l-252 -8l31 498
l260 26l137 -514l62 -166l-101 -221l135 -24l43 -164l-223 14l-53 -166z" />
    <glyph glyph-name="Aring" unicode="&#xc5;" horiz-adv-x="1837" 
d="M840 2087l94 -123l-14 -131l-175 -100v151l46 41l-46 53l7 138zM606 2087l88 29l6 -138l-45 -53l45 -41v-151l-174 100l-14 131zM856 1190l-113 455l424 10l197 -658l231 -608l174 -63l27 -326l-848 -6l-6 315l150 80zM793 322l24 -326h-735l41 334l174 59l166 365
l137 362l-252 -8l31 498l260 26l137 -514l62 -166l-101 -221l135 -24l43 -164l-223 14l-53 -166z" />
    <glyph glyph-name="AE" unicode="&#xc6;" horiz-adv-x="2168" 
d="M1505 1626l529 29l-41 -473l-207 2l-285 110zM858 -4l-16 323l135 62l12 815l-10 446l418 -6l4 -399l-19 -475l9 -373l6 -391zM1501 727v201l213 123l217 6l-6 -453l-213 -16zM752 322l24 -326h-715l21 334l194 59l166 365l179 362l-252 53l30 478l475 -15l21 -499
l-2 -119l-156 -283l156 -24v-177l-221 7l-74 -146zM1477 340l309 135l321 -22l-49 -496l-581 45v338z" />
    <glyph glyph-name="Ccedilla" unicode="&#xc7;" horiz-adv-x="1447" 
d="M672 1632l168 -22l-9 -445l-290 -270l14 -250l309 -207l-8 -461l-483 84l-291 486l61 631zM1407 1464l-137 -524l-350 72l4 600zM1235 -539l-346 15l10 205l250 -35v78l-191 28l-36 137l6 183h18l4 389l330 26l123 -454l-291 -37l12 -96l166 -25l76 -217z" />
    <glyph glyph-name="Egrave" unicode="&#xc8;" horiz-adv-x="1445" 
d="M604 2310l305 -440l-217 -129l-344 352zM803 1626l528 29l-41 -473l-207 2l-284 110zM268 391l13 785l-164 10l-27 430l207 6l397 14l4 -399l-18 -475l8 -373l6 -391l-426 -2l-186 -2l8 362zM799 727v201l213 123l217 6l-6 -453l-213 -16zM774 340l309 135l322 -22
l-49 -496l-582 45v338z" />
    <glyph glyph-name="Eacute" unicode="&#xc9;" horiz-adv-x="1445" 
d="M756 2310l256 -217l-344 -352l-217 129zM803 1626l528 29l-41 -473l-207 2l-284 110zM268 391l13 785l-164 10l-27 430l207 6l397 14l4 -399l-18 -475l8 -373l6 -391l-426 -2l-186 -2l8 362zM799 727v201l213 123l217 6l-6 -453l-213 -16zM774 340l309 135l322 -22
l-49 -496l-582 45v338z" />
    <glyph glyph-name="Ecircumflex" unicode="&#xca;" horiz-adv-x="1445" 
d="M205 1944l342 229l332 -238l-152 -161l-195 147l-192 -160zM803 1626l528 29l-41 -473l-207 2l-284 110zM268 391l13 785l-164 10l-27 430l207 6l397 14l4 -399l-18 -475l8 -373l6 -391l-426 -2l-186 -2l8 362zM799 727v201l213 123l217 6l-6 -453l-213 -16zM774 340
l309 135l322 -22l-49 -496l-582 45v338z" />
    <glyph glyph-name="Edieresis" unicode="&#xcb;" horiz-adv-x="1445" 
d="M270 2068l203 52l170 -70l8 -264l-188 -43l-197 47zM1102 2077l8 -265l-149 -69l-220 31l-22 278l194 68zM803 1626l528 29l-41 -473l-207 2l-284 110zM268 391l13 785l-164 10l-27 430l207 6l397 14l4 -399l-18 -475l8 -373l6 -391l-426 -2l-186 -2l8 362zM799 727v201
l213 123l217 6l-6 -453l-213 -16zM774 340l309 135l322 -22l-49 -496l-582 45v338z" />
    <glyph glyph-name="Igrave" unicode="&#xcc;" horiz-adv-x="944" 
d="M393 2310l305 -440l-217 -129l-344 352zM268 391l6 385l7 420l-164 10l-6 410l772 20l4 -399l-191 -41l29 -428l-16 -358l194 -78l-4 -334l-817 -4l8 362z" />
    <glyph glyph-name="Iacute" unicode="&#xcd;" horiz-adv-x="944" 
d="M551 2310l256 -217l-344 -352l-217 129zM268 391l6 385l7 420l-164 10l-6 410l772 20l4 -399l-191 -41l29 -428l-16 -358l194 -78l-4 -334l-817 -4l8 362z" />
    <glyph glyph-name="Icircumflex" unicode="&#xce;" horiz-adv-x="1026" 
d="M246 1944l342 229l332 -238l-152 -161l-195 147l-192 -160zM350 391l6 385l6 420l-163 10l-6 410l772 20l4 -399l-191 -41l29 -428l-16 -358l194 -78l-4 -334l-817 -4l8 362z" />
    <glyph glyph-name="Idieresis" unicode="&#xcf;" horiz-adv-x="985" 
d="M86 2068l203 52l170 -70l8 -264l-188 -43l-197 47zM918 2077l8 -265l-150 -69l-219 31l-22 278l194 68zM309 391l6 385l7 420l-164 10l-6 410l772 20l4 -399l-191 -41l29 -428l-16 -358l194 -78l-4 -334l-817 -4l8 362z" />
    <glyph glyph-name="Eth" unicode="&#xd0;" horiz-adv-x="1609" 
d="M805 1628l446 -31l297 -507l-26 -740l-394 -393l-329 39l-11 393l271 146l-10 489l-261 129zM696 -2l-592 -4l9 362l157 35l4 242l-213 6l11 276h207l4 281l-144 -10l-26 430l583 20l4 -399l-12 -319h232l-2 -291l-234 2l6 -240z" />
    <glyph glyph-name="Ntilde" unicode="&#xd1;" horiz-adv-x="1751" 
d="M442 1917l260 219l289 -121l94 111l197 -148l-223 -223l-332 113l-141 -137zM1485 954h-135l-80 222l-213 86l-31 376l664 7v-396l-158 -75zM1151 936l324 -356l2 -537l-293 -6l-406 510l-372 608l-283 45l-39 434l676 -6zM61 -2v395l187 58l31 206l22 283h141l41 -299
l35 -190l176 -70l31 -377z" />
    <glyph glyph-name="Ograve" unicode="&#xd2;" horiz-adv-x="1748" 
d="M748 2310l305 -440l-217 -129l-344 352zM1155 -6l-168 18l-8 445l283 299l-23 207l-317 217l-9 460l486 -65l309 -475l-41 -631zM635 1632l168 -16l8 -445l-283 -280l23 -207l317 -238l9 -460l-488 67l-307 473l41 635z" />
    <glyph glyph-name="Oacute" unicode="&#xd3;" horiz-adv-x="1748" 
d="M899 2310l256 -217l-344 -352l-217 129zM1155 -6l-168 18l-8 445l283 299l-23 207l-317 217l-9 460l486 -65l309 -475l-41 -631zM635 1632l168 -16l8 -445l-283 -280l23 -207l317 -238l9 -460l-488 67l-307 473l41 635z" />
    <glyph glyph-name="Ocircumflex" unicode="&#xd4;" horiz-adv-x="1748" 
d="M430 1944l342 229l332 -238l-152 -161l-194 147l-193 -160zM1155 -6l-168 18l-8 445l283 299l-23 207l-317 217l-9 460l486 -65l309 -475l-41 -631zM635 1632l168 -16l8 -445l-283 -280l23 -207l317 -238l9 -460l-488 67l-307 473l41 635z" />
    <glyph glyph-name="Otilde" unicode="&#xd5;" horiz-adv-x="1748" 
d="M430 1917l260 219l289 -121l94 111l197 -148l-223 -223l-332 113l-142 -137zM1155 -6l-168 18l-8 445l283 299l-23 207l-317 217l-9 460l486 -65l309 -475l-41 -631zM635 1632l168 -16l8 -445l-283 -280l23 -207l317 -238l9 -460l-488 67l-307 473l41 635z" />
    <glyph glyph-name="Odieresis" unicode="&#xd6;" horiz-adv-x="1748" 
d="M434 2068l203 52l170 -70l8 -264l-188 -43l-197 47zM1266 2077l8 -265l-150 -69l-219 31l-22 278l194 68zM1155 -6l-168 18l-8 445l283 299l-23 207l-317 217l-9 460l486 -65l309 -475l-41 -631zM635 1632l168 -16l8 -445l-283 -280l23 -207l317 -238l9 -460l-488 67
l-307 473l41 635z" />
    <glyph glyph-name="multiply" unicode="&#xd7;" horiz-adv-x="1021" 
d="M719 233l-193 269l-204 -232l-230 234l221 194l-252 195l252 244l197 -244l207 235l244 -251l-240 -187l237 -201z" />
    <glyph glyph-name="Oslash" unicode="&#xd8;" horiz-adv-x="2086" 
d="M1018 446l8 -460l-487 67l-97 148l-215 -166l-166 203l242 178l-72 110l41 635l512 471l168 -16l9 -445l-283 -280l10 -191l594 439l-211 41l-8 460l485 -65l105 -162l221 164l151 -160l-249 -192l82 -125l-41 -631l-512 -475l-168 18l-9 445l283 299l-10 182l-574 -442z
" />
    <glyph glyph-name="Ugrave" unicode="&#xd9;" horiz-adv-x="1736" 
d="M829 2310l306 -440l-217 -129l-345 352zM711 698v-340l182 -161l-10 -238l-365 31l-315 305l41 381l8 520l-164 10l-6 410l772 20l4 -430l-190 -10zM1540 682l-39 -494l-301 -231h-188l4 236l166 196l43 764l-234 47l-6 410l707 26l4 -399l-176 -41z" />
    <glyph glyph-name="Uacute" unicode="&#xda;" horiz-adv-x="1736" 
d="M981 2310l256 -217l-344 -352l-217 129zM711 698v-340l182 -161l-10 -238l-365 31l-315 305l41 381l8 520l-164 10l-6 410l772 20l4 -430l-190 -10zM1540 682l-39 -494l-301 -231h-188l4 236l166 196l43 764l-234 47l-6 410l707 26l4 -399l-176 -41z" />
    <glyph glyph-name="Ucircumflex" unicode="&#xdb;" horiz-adv-x="1736" 
d="M438 1944l342 229l332 -238l-151 -161l-195 147l-193 -160zM711 698v-340l182 -161l-10 -238l-365 31l-315 305l41 381l8 520l-164 10l-6 410l772 20l4 -430l-190 -10zM1540 682l-39 -494l-301 -231h-188l4 236l166 196l43 764l-234 47l-6 410l707 26l4 -399l-176 -41z
" />
    <glyph glyph-name="Udieresis" unicode="&#xdc;" horiz-adv-x="1736" 
d="M455 2068l202 52l170 -70l9 -264l-189 -43l-196 47zM1286 2077l8 -265l-149 -69l-219 31l-23 278l195 68zM711 698v-340l182 -161l-10 -238l-365 31l-315 305l41 381l8 520l-164 10l-6 410l772 20l4 -430l-190 -10zM1540 682l-39 -494l-301 -231h-188l4 236l166 196
l43 764l-234 47l-6 410l707 26l4 -399l-176 -41z" />
    <glyph glyph-name="Yacute" unicode="&#xdd;" horiz-adv-x="1576" 
d="M858 2310l256 -217l-303 -352l-258 129zM399 -12l11 354l161 47l19 273l-285 532l-213 25l-31 407l578 10l401 -833l23 -414l213 -45l10 -344zM950 1634l566 -2l-15 -352l-393 -279l16 203l-161 127z" />
    <glyph glyph-name="Thorn" unicode="&#xde;" horiz-adv-x="1490" 
d="M248 371l6 344l6 583l-164 11l-6 368l772 21l4 -359l-190 -41l29 -591l-17 -318l195 -78l-4 -313l-818 -4l9 342zM801 932l-6 266l272 131l363 -303l-62 -467l-223 -174l-336 82l-6 231l241 56v147z" />
    <glyph glyph-name="germandbls" unicode="&#xdf;" horiz-adv-x="1662" 
d="M322 391l-19 359l-225 8l-17 411l226 15l51 334l160 161l245 -2l-24 -399l14 -516l8 -373l-8 -397l-577 2l8 362zM844 1671l358 -24l273 -211l49 -500l-346 -111l421 -118l3 -508l-222 -242l-542 41l-7 334l351 2l49 143l-408 158l2 401l349 158l-355 90z" />
    <glyph glyph-name="agrave" unicode="&#xe0;" horiz-adv-x="1413" 
d="M584 2023l305 -440l-217 -129l-344 352zM129 1239l430 117l-20 -453l-283 -12zM653 1341l361 2l221 -110l-27 -850l164 -23l-6 -360l-358 -43l-228 281l51 700l-196 68zM686 811l14 -254l-192 -65l12 -185l137 -6l142 -303l-484 -41l-233 309l117 518z" />
    <glyph glyph-name="aacute" unicode="&#xe1;" horiz-adv-x="1413" 
d="M838 2023l256 -217l-344 -352l-218 129zM129 1239l430 117l-20 -453l-283 -12zM653 1341l361 2l221 -110l-27 -850l164 -23l-6 -360l-358 -43l-228 281l51 700l-196 68zM686 811l14 -254l-192 -65l12 -185l137 -6l142 -303l-484 -41l-233 309l117 518z" />
    <glyph glyph-name="acircumflex" unicode="&#xe2;" horiz-adv-x="1413" 
d="M381 1616l342 229l332 -237l-152 -162l-194 147l-193 -159zM129 1239l430 117l-20 -453l-283 -12zM653 1341l361 2l221 -110l-27 -850l164 -23l-6 -360l-358 -43l-228 281l51 700l-196 68zM686 811l14 -254l-192 -65l12 -185l137 -6l142 -303l-484 -41l-233 309l117 518z
" />
    <glyph glyph-name="atilde" unicode="&#xe3;" horiz-adv-x="1413" 
d="M266 1630l260 219l289 -120l94 110l197 -147l-223 -224l-332 113l-141 -137zM129 1239l430 117l-20 -453l-283 -12zM653 1341l361 2l221 -110l-27 -850l164 -23l-6 -360l-358 -43l-228 281l51 700l-196 68zM686 811l14 -254l-192 -65l12 -185l137 -6l142 -303l-484 -41
l-233 309l117 518z" />
    <glyph glyph-name="adieresis" unicode="&#xe4;" horiz-adv-x="1413" 
d="M268 1782l203 51l170 -70l8 -264l-188 -43l-197 47zM1100 1790l8 -264l-150 -70l-219 31l-22 278l194 68zM129 1239l430 117l-20 -453l-283 -12zM653 1341l361 2l221 -110l-27 -850l164 -23l-6 -360l-358 -43l-228 281l51 700l-196 68zM686 811l14 -254l-192 -65l12 -185
l137 -6l142 -303l-484 -41l-233 309l117 518z" />
    <glyph glyph-name="aring" unicode="&#xe5;" horiz-adv-x="1413" 
d="M758 1841l94 -123l-14 -131l-174 -100v151l45 41l-45 54l6 137zM524 1841l88 29l6 -137l-45 -54l45 -41v-151l-174 100l-14 131zM129 1239l430 117l-20 -453l-283 -12zM653 1341l361 2l221 -110l-27 -850l164 -23l-6 -360l-358 -43l-228 281l51 700l-196 68zM686 811
l14 -254l-192 -65l12 -185l137 -6l142 -303l-484 -41l-233 309l117 518z" />
    <glyph glyph-name="ae" unicode="&#xe6;" horiz-adv-x="1970" 
d="M109 1239l430 117l-21 -453l-282 -12zM633 1341l403 7l176 -209l-55 -750l113 -49l-6 -340l-277 -23l-227 261l63 747l-209 21zM1303 1341l487 -133l119 -436l-162 -268l-467 -25l6 248l287 90l-12 86l-244 43zM700 811l-20 -254l-193 -65l13 -185l137 -6l141 -303
l-483 -41l-234 309l117 518zM1372 319l273 95l231 -60l-70 -354l-442 -23z" />
    <glyph glyph-name="ccedilla" unicode="&#xe7;" horiz-adv-x="1294" 
d="M561 1331l168 -22l2 -340l-205 -314l19 -94l178 -213v-405l-373 129l-268 360l70 567zM1237 1202l-135 -436l-291 33l2 512zM1102 -539l-346 15l10 205l250 -35v78l-191 28l-32 189l14 120h4l-4 279l291 33l139 -324l-256 -65l10 -84l166 -25l76 -217z" />
    <glyph glyph-name="egrave" unicode="&#xe8;" horiz-adv-x="1417" 
d="M584 2023l305 -440l-217 -129l-344 352zM831 1354l426 -146l119 -436l-100 -268l-496 -49l-51 252l305 120l-209 113zM737 1354l-4 -369l-158 -328l160 -346l-4 -362l-369 49l-280 676l307 612zM840 299l272 115l231 -60l-69 -354l-443 -43z" />
    <glyph glyph-name="eacute" unicode="&#xe9;" horiz-adv-x="1417" 
d="M838 2023l256 -217l-344 -352l-218 129zM831 1354l426 -146l119 -436l-100 -268l-496 -49l-51 252l305 120l-209 113zM737 1354l-4 -369l-158 -328l160 -346l-4 -362l-369 49l-280 676l307 612zM840 299l272 115l231 -60l-69 -354l-443 -43z" />
    <glyph glyph-name="ecircumflex" unicode="&#xea;" horiz-adv-x="1417" 
d="M422 1616l342 229l332 -237l-152 -162l-194 147l-193 -159zM831 1354l426 -146l119 -436l-100 -268l-496 -49l-51 252l305 120l-209 113zM737 1354l-4 -369l-158 -328l160 -346l-4 -362l-369 49l-280 676l307 612zM840 299l272 115l231 -60l-69 -354l-443 -43z" />
    <glyph glyph-name="edieresis" unicode="&#xeb;" horiz-adv-x="1417" 
d="M1182 1790l8 -264l-150 -70l-219 31l-22 278l194 68zM350 1782l203 51l170 -70l8 -264l-188 -43l-197 47zM831 1354l426 -146l119 -436l-100 -268l-496 -49l-51 252l305 120l-209 113zM737 1354l-4 -369l-158 -328l160 -346l-4 -362l-369 49l-280 676l307 612zM840 299
l272 115l231 -60l-69 -354l-443 -43z" />
    <glyph glyph-name="igrave" unicode="&#xec;" horiz-adv-x="915" 
d="M317 2023l306 -440l-217 -129l-345 352zM295 391l-4 422l-144 -10l-45 420l629 20l-4 -340l-2 -141l8 -373l119 -33l2 -358l-725 -4l8 362z" />
    <glyph glyph-name="iacute" unicode="&#xed;" horiz-adv-x="874" 
d="M469 2023l256 -217l-344 -352l-217 129zM254 391l-4 422l-144 -10l-45 420l629 20l-4 -340l-2 -141l8 -373l119 -33l2 -358l-725 -4l8 362z" />
    <glyph glyph-name="icircumflex" unicode="&#xee;" horiz-adv-x="874" 
d="M61 1616l342 229l332 -237l-151 -162l-195 147l-192 -159zM254 391l-4 422l-144 -10l-45 420l629 20l-4 -340l-2 -141l8 -373l119 -33l2 -358l-725 -4l8 362z" />
    <glyph glyph-name="idieresis" unicode="&#xef;" horiz-adv-x="966" 
d="M897 1790l8 -264l-149 -70l-219 31l-23 278l195 68zM66 1782l202 51l170 -70l8 -264l-188 -43l-197 47zM344 391l-4 422l-143 -10l-45 420l628 20l-4 -340l-2 -141l8 -373l119 -33l2 -358l-725 -4l8 362z" />
    <glyph glyph-name="eth" unicode="&#xf0;" horiz-adv-x="1445" 
d="M772 -111l-6 322l192 117l9 307l2 8l-39 307l-332 250l-254 -194l-283 102l5 160l256 137l-201 133l67 287l289 -4l189 -101l143 178l321 -110l7 -166l-213 -135l448 -348l12 -996l-215 -186zM575 1051l240 -133l21 -267l-295 -86l8 -246l139 -108l-6 -322l-356 68
l-236 217l43 557z" />
    <glyph glyph-name="ntilde" unicode="&#xf1;" horiz-adv-x="1609" 
d="M328 1630l260 219l289 -120l94 110l196 -147l-223 -224l-332 113l-141 -137zM260 391l-4 504l-143 -10l-31 407l629 21l-37 -410l-2 -141l8 -373l119 -33l2 -358l-707 -4l8 362zM893 367l123 22l8 545l-238 -4l5 215l233 162l303 -64l119 -217l-4 -637l119 -31l8 -356
l-658 2z" />
    <glyph glyph-name="ograve" unicode="&#xf2;" horiz-adv-x="1507" 
d="M645 2023l305 -440l-217 -129l-344 352zM774 1305l336 -9l342 -571l14 -289l-305 -446l-309 14v350l129 283l-190 246zM684 1298l14 -407l-161 -281l211 -229l12 -385l-254 -6l-410 399l-14 397l350 504z" />
    <glyph glyph-name="oacute" unicode="&#xf3;" horiz-adv-x="1507" 
d="M817 2023l256 -217l-344 -352l-217 129zM774 1305l336 -9l342 -571l14 -289l-305 -446l-309 14v350l129 283l-190 246zM684 1298l14 -407l-161 -281l211 -229l12 -385l-254 -6l-410 399l-14 397l350 504z" />
    <glyph glyph-name="ocircumflex" unicode="&#xf4;" horiz-adv-x="1507" 
d="M410 1616l342 229l331 -237l-151 -162l-195 147l-192 -159zM774 1305l336 -9l342 -571l14 -289l-305 -446l-309 14v350l129 283l-190 246zM684 1298l14 -407l-161 -281l211 -229l12 -385l-254 -6l-410 399l-14 397l350 504z" />
    <glyph glyph-name="otilde" unicode="&#xf5;" horiz-adv-x="1507" 
d="M307 1630l260 219l289 -120l94 110l197 -147l-223 -224l-332 113l-141 -137zM774 1305l336 -9l342 -571l14 -289l-305 -446l-309 14v350l129 283l-190 246zM684 1298l14 -407l-161 -281l211 -229l12 -385l-254 -6l-410 399l-14 397l350 504z" />
    <glyph glyph-name="odieresis" unicode="&#xf6;" horiz-adv-x="1507" 
d="M1182 1790l8 -264l-150 -70l-219 31l-22 278l194 68zM350 1782l203 51l170 -70l8 -264l-188 -43l-197 47zM774 1305l336 -9l342 -571l14 -289l-305 -446l-309 14v350l129 283l-190 246zM684 1298l14 -407l-161 -281l211 -229l12 -385l-254 -6l-410 399l-14 397l350 504z
" />
    <glyph glyph-name="divide" unicode="&#xf7;" horiz-adv-x="1239" 
d="M563 1466l244 -32l45 -332l-238 -53l-208 45l-9 295zM1165 618l-665 19l-432 -19l-7 351l684 -13l433 13zM834 449l-9 -295l-209 -45l-237 53l45 332l244 32z" />
    <glyph glyph-name="oslash" unicode="&#xf8;" horiz-adv-x="1882" 
d="M1317 -10l-330 14v330l150 282l-191 267l-16 401l336 12l106 -176l322 258l127 -182l-248 -195l-88 -71l123 -205l14 -289zM430 102l-262 -165l-107 165l281 199l-90 88l-14 397l350 504l252 8l14 -407l-172 -277l197 -225l16 -393l-233 -6l-168 164z" />
    <glyph glyph-name="ugrave" unicode="&#xf9;" 
d="M768 2023l305 -440l-217 -129l-344 352zM1434 915l4 -383l-21 -161l164 51l31 -408l-629 -20l37 409l2 142l-8 373l-152 -48l-6 445l660 35zM743 1348l-55 -422l-29 -596l238 4l-4 -277l-234 -100l-303 63l-118 218l59 624l-215 2l22 428z" />
    <glyph glyph-name="uacute" unicode="&#xfa;" 
d="M858 2023l256 -217l-344 -352l-217 129zM1434 915l4 -383l-21 -161l164 51l31 -408l-629 -20l37 409l2 142l-8 373l-152 -48l-6 445l660 35zM743 1348l-55 -422l-29 -596l238 4l-4 -277l-234 -100l-303 63l-118 218l59 624l-215 2l22 428z" />
    <glyph glyph-name="ucircumflex" unicode="&#xfb;" 
d="M492 1616l342 229l331 -237l-151 -162l-195 147l-192 -159zM1434 915l4 -383l-21 -161l164 51l31 -408l-629 -20l37 409l2 142l-8 373l-152 -48l-6 445l660 35zM743 1348l-55 -422l-29 -596l238 4l-4 -277l-234 -100l-303 63l-118 218l59 624l-215 2l22 428z" />
    <glyph glyph-name="udieresis" unicode="&#xfc;" 
d="M1243 1790l8 -264l-149 -70l-219 31l-23 278l195 68zM412 1782l202 51l170 -70l9 -264l-189 -43l-196 47zM1434 915l4 -383l-21 -161l164 51l31 -408l-629 -20l37 409l2 142l-8 373l-152 -48l-6 445l660 35zM743 1348l-55 -422l-29 -596l238 4l-4 -277l-234 -100l-303 63
l-118 218l59 624l-215 2l22 428z" />
    <glyph glyph-name="yacute" unicode="&#xfd;" horiz-adv-x="1576" 
d="M920 2023l256 -217l-345 -352l-217 129zM719 139l-393 721l-213 25l-31 407l610 11l424 -869l-92 -280zM971 1300l565 -2l-14 -352l-328 -313l-49 258l-195 98zM1004 37l-50 -217l-290 -328l-373 186l43 246z" />
    <glyph glyph-name="thorn" unicode="&#xfe;" horiz-adv-x="1531" 
d="M248 -80l6 795l6 583l-164 11l-6 368l772 21l4 -359l-190 -41l29 -591l-17 -768l195 -78l-4 -293l-818 -4l9 321zM801 891l-6 307l313 131l362 -303l-61 -897l-223 -174l-377 82l-6 272l221 76v496z" />
    <glyph glyph-name="ydieresis" unicode="&#xff;" horiz-adv-x="1576" 
d="M1264 1790l8 -264l-150 -70l-219 31l-22 278l194 68zM432 1782l203 51l170 -70l8 -264l-188 -43l-197 47zM719 139l-393 721l-213 25l-31 407l610 11l424 -869l-92 -280zM971 1300l565 -2l-14 -352l-328 -313l-49 258l-195 98zM1004 37l-50 -217l-290 -328l-373 186
l43 246z" />
    <glyph glyph-name="Amacron" unicode="&#x100;" horiz-adv-x="1837" 
d="M492 2068l278 7l320 -21l20 -297l-279 25l-360 -15zM856 1190l-113 455l424 10l197 -658l231 -608l174 -63l27 -326l-848 -6l-6 315l150 80zM793 322l24 -326h-735l41 334l174 59l166 365l137 362l-252 -8l31 498l260 26l137 -514l62 -166l-101 -221l135 -24l43 -164
l-223 14l-53 -166z" />
    <glyph glyph-name="amacron" unicode="&#x101;" horiz-adv-x="1413" 
d="M391 1796l279 6l319 -20l21 -297l-279 24l-360 -14zM109 1239l430 117l-21 -453l-282 -12zM633 1341l360 2l221 -110l-26 -850l164 -23l-6 -360l-359 -43l-227 281l51 700l-197 68zM666 811l14 -254l-193 -65l13 -185l137 -6l141 -303l-483 -41l-234 309l117 518z" />
    <glyph glyph-name="Abreve" unicode="&#x102;" horiz-adv-x="1837" 
d="M430 1966l39 160l209 -6l51 -183h123l41 181l186 4l47 -170l-116 -213l-475 4zM856 1190l-113 455l424 10l197 -658l231 -608l174 -63l27 -326l-848 -6l-6 315l150 80zM793 322l24 -326h-735l41 334l174 59l166 365l137 362l-252 -8l31 498l260 26l137 -514l62 -166
l-101 -221l135 -24l43 -164l-223 14l-53 -166z" />
    <glyph glyph-name="abreve" unicode="&#x103;" horiz-adv-x="1413" 
d="M348 1694l39 159l209 -6l51 -182h123l41 180l186 4l47 -170l-116 -213l-475 4zM129 1239l430 117l-20 -453l-283 -12zM653 1341l361 2l221 -110l-27 -850l164 -23l-6 -360l-358 -43l-228 281l51 700l-196 68zM686 811l14 -254l-192 -65l12 -185l137 -6l142 -303l-484 -41
l-233 309l117 518z" />
    <glyph glyph-name="Aogonek" unicode="&#x104;" horiz-adv-x="1837" 
d="M1161 -496l-106 240l180 252l-287 -2l-6 315l150 80l-236 801l-113 455l424 10l197 -658l231 -608l174 -63l27 -326l-389 -2l-82 -234l193 58l102 -80l-64 -184zM793 322l24 -326h-735l41 334l174 59l166 365l137 362l-252 -8l31 498l260 26l137 -514l62 -166l-101 -221
l135 -24l43 -164l-223 14l-53 -166z" />
    <glyph glyph-name="aogonek" unicode="&#x105;" horiz-adv-x="1413" 
d="M129 1239l430 117l-20 -453l-283 -12zM653 1341l361 2l221 -110l-27 -850l164 -23l-6 -360l-358 -43l-228 281l51 700l-196 68zM506 -496l-107 240l166 233l-250 -20l-233 309l117 518l487 27l14 -254l-192 -65l12 -185l137 -6l142 -303l-21 -2l-108 -232l192 58l103 -80
l-64 -184z" />
    <glyph glyph-name="Cacute" unicode="&#x106;" horiz-adv-x="1447" 
d="M981 2310l256 -217l-344 -352l-217 129zM651 1632l168 -22l-8 -445l-291 -270l15 -250l309 -207l-8 -461l-484 84l-291 486l62 631zM1386 1464l-137 -524l-350 72l4 600zM1382 33l-456 -58l4 486l330 26z" />
    <glyph glyph-name="cacute" unicode="&#x107;" horiz-adv-x="1277" 
d="M860 2028l256 -218l-344 -352l-217 129zM561 1331l168 -22l2 -340l-205 -314l19 -94l178 -213v-405l-373 129l-268 360l70 567zM1237 1202l-135 -436l-291 33l2 512zM1237 49l-424 -108l-6 399l291 33z" />
    <glyph glyph-name="Ccircumflex" unicode="&#x108;" horiz-adv-x="1447" 
d="M492 1944l342 229l331 -238l-151 -161l-195 147l-192 -160zM651 1632l168 -22l-8 -445l-291 -270l15 -250l309 -207l-8 -461l-484 84l-291 486l62 631zM1386 1464l-137 -524l-350 72l4 600zM1382 33l-456 -58l4 486l330 26z" />
    <glyph glyph-name="ccircumflex" unicode="&#x109;" horiz-adv-x="1277" 
d="M381 1616l342 229l332 -237l-152 -162l-194 147l-193 -159zM541 1331l168 -22l2 -340l-205 -314l18 -94l178 -213v-405l-372 129l-269 360l70 567zM1217 1202l-136 -436l-290 33l2 512zM1217 49l-424 -108l-7 399l291 33z" />
    <glyph glyph-name="Cdotaccent" unicode="&#x10a;" horiz-adv-x="1447" 
d="M680 2089l203 51l170 -69l8 -265l-189 -43l-196 47zM651 1632l168 -22l-8 -445l-291 -270l15 -250l309 -207l-8 -461l-484 84l-291 486l62 631zM1386 1464l-137 -524l-350 72l4 600zM1382 33l-456 -58l4 486l330 26z" />
    <glyph glyph-name="cdotaccent" unicode="&#x10b;" horiz-adv-x="1277" 
d="M496 1802l202 51l170 -69l9 -264l-189 -43l-196 47zM561 1331l168 -22l2 -340l-205 -314l19 -94l178 -213v-405l-373 129l-268 360l70 567zM1237 1202l-135 -436l-291 33l2 512zM1237 49l-424 -108l-6 399l291 33z" />
    <glyph glyph-name="Ccaron" unicode="&#x10c;" horiz-adv-x="1447" 
d="M553 1991l135 182l193 -160l194 148l152 -162l-344 -238zM651 1632l168 -22l-8 -445l-291 -270l15 -250l309 -207l-8 -461l-484 84l-291 486l62 631zM1386 1464l-137 -524l-350 72l4 600zM1382 33l-456 -58l4 486l330 26z" />
    <glyph glyph-name="ccaron" unicode="&#x10d;" horiz-adv-x="1277" 
d="M369 1688l135 182l192 -160l195 148l151 -162l-344 -238zM561 1331l168 -22l2 -340l-205 -314l19 -94l178 -213v-405l-373 129l-268 360l70 567zM1237 1202l-135 -436l-291 33l2 512zM1237 49l-424 -108l-6 399l291 33z" />
    <glyph glyph-name="Dcaron" unicode="&#x10e;" horiz-adv-x="1566" 
d="M410 1991l135 182l192 -160l195 148l151 -162l-344 -238zM227 391l13 805l-144 -10l-26 430l583 20l4 -399l-18 -475l8 -373l6 -391l-592 -4l9 362zM762 1628l446 -31l297 -507l-26 -740l-394 -393l-329 39l-11 393l271 146l-10 489l-261 129z" />
    <glyph glyph-name="dcaron" unicode="&#x10f;" horiz-adv-x="1818" 
d="M1356 1628l284 76l117 -82l-6 -457l-213 -297l-147 148l108 174l-156 27zM836 -18l-7 227l13 557l-19 516l-176 84v320l135 -7v2l465 -14l-6 -426l12 -846l148 -20l12 -371zM416 1300l307 -145l-6 -278l-176 4l8 -553l192 -97l-6 -198l-397 -76l-277 217l43 864z" />
    <glyph glyph-name="dcroat" unicode="&#x111;" horiz-adv-x="1705" 
d="M1321 1311l324 12l-7 -246l-309 15zM836 -18l-7 227l13 557l-11 315l-425 4l-17 234l434 -10v12l-176 84v281l135 -7v2l465 -14l-6 -426l12 -846l148 -20l12 -371zM416 993l307 -63l-6 -279l-176 -37l8 -286l192 -97l-6 -198l-397 -76l-277 217l43 639z" />
    <glyph glyph-name="Emacron" unicode="&#x112;" horiz-adv-x="1445" 
d="M430 2068l279 7l319 -21l21 -297l-279 25l-360 -15zM803 1626l528 29l-41 -473l-207 2l-284 110zM268 391l13 785l-164 10l-27 430l207 6l397 14l4 -399l-18 -475l8 -373l6 -391l-426 -2l-186 -2l8 362zM799 727v201l213 123l217 6l-6 -453l-213 -16zM774 340l309 135
l322 -22l-49 -496l-582 45v338z" />
    <glyph glyph-name="emacron" unicode="&#x113;" horiz-adv-x="1417" 
d="M432 1782l279 6l319 -21l21 -297l-279 25l-360 -14zM831 1354l426 -146l119 -436l-100 -268l-496 -49l-51 252l305 120l-209 113zM737 1354l-4 -369l-158 -328l160 -346l-4 -362l-369 49l-280 676l307 612zM840 299l272 115l231 -60l-69 -354l-443 -43z" />
    <glyph glyph-name="Ebreve" unicode="&#x114;" horiz-adv-x="1445" 
d="M369 1966l39 160l208 -6l52 -183h123l40 181l187 4l47 -170l-117 -213l-475 4zM803 1626l528 29l-41 -473l-207 2l-284 110zM268 391l13 785l-164 10l-27 430l207 6l397 14l4 -399l-18 -475l8 -373l6 -391l-426 -2l-186 -2l8 362zM799 727v201l213 123l217 6l-6 -453
l-213 -16zM774 340l309 135l322 -22l-49 -496l-582 45v338z" />
    <glyph glyph-name="ebreve" unicode="&#x115;" horiz-adv-x="1417" 
d="M393 1694l39 159l209 -6l51 -182h123l41 180l186 4l48 -170l-117 -213l-475 4zM831 1354l426 -146l119 -436l-100 -268l-496 -49l-51 252l305 120l-209 113zM737 1354l-4 -369l-158 -328l160 -346l-4 -362l-369 49l-280 676l307 612zM840 299l272 115l231 -60l-69 -354
l-443 -43z" />
    <glyph glyph-name="Edotaccent" unicode="&#x116;" horiz-adv-x="1445" 
d="M537 2089l202 51l170 -69l9 -265l-189 -43l-197 47zM803 1626l528 29l-41 -473l-207 2l-284 110zM268 391l13 785l-164 10l-27 430l207 6l397 14l4 -399l-18 -475l8 -373l6 -391l-426 -2l-186 -2l8 362zM799 727v201l213 123l217 6l-6 -453l-213 -16zM774 340l309 135
l322 -22l-49 -496l-582 45v338z" />
    <glyph glyph-name="edotaccent" unicode="&#x117;" horiz-adv-x="1417" 
d="M563 1802l203 51l170 -69l8 -264l-188 -43l-197 47zM831 1354l426 -146l119 -436l-100 -268l-496 -49l-51 252l305 120l-209 113zM737 1354l-4 -369l-158 -328l160 -346l-4 -362l-369 49l-280 676l307 612zM840 299l272 115l231 -60l-69 -354l-443 -43z" />
    <glyph glyph-name="Eogonek" unicode="&#x118;" horiz-adv-x="1445" 
d="M803 1626l528 29l-41 -473l-207 2l-284 110zM268 391l13 785l-164 10l-27 430l207 6l397 14l4 -399l-18 -475l8 -373l6 -391l-426 -2l-186 -2l8 362zM799 727v201l213 123l217 6l-6 -453l-213 -16zM1071 -442l-395 -54l-107 240l205 287v309l309 135l322 -22l-49 -496
l-436 35l-80 -228l192 58l103 -80z" />
    <glyph glyph-name="eogonek" unicode="&#x119;" horiz-adv-x="1417" 
d="M831 1354l426 -146l119 -436l-100 -268l-496 -49l-51 252l305 120l-209 113zM737 1354l-4 -369l-158 -328l160 -346l-4 -362l-369 49l-280 676l307 612zM766 -496l-107 240l172 242l9 313l272 115l231 -60l-69 -354l-270 -27l-74 -209l192 58l103 -80l-64 -184z" />
    <glyph glyph-name="ecaron" unicode="&#x11b;" horiz-adv-x="1417" 
d="M432 1688l135 182l193 -160l194 148l152 -162l-344 -238zM831 1354l426 -146l119 -436l-100 -268l-496 -49l-51 252l305 120l-209 113zM737 1354l-4 -369l-158 -328l160 -346l-4 -362l-369 49l-280 676l307 612zM840 299l272 115l231 -60l-69 -354l-443 -43z" />
    <glyph glyph-name="Gcircumflex" unicode="&#x11c;" horiz-adv-x="1644" 
d="M573 1944l342 229l332 -238l-151 -161l-195 147l-192 -160zM692 1632l209 -22l-8 -445l-332 -270l14 -250l310 -207l-45 -438l-447 61l-332 486l62 631zM1468 1464l-137 -524l-350 72l4 600zM909 825l674 13l-24 -426l-173 -23l33 -608l-92 -43l-387 108l74 625l-107 199
z" />
    <glyph glyph-name="gcircumflex" unicode="&#x11d;" horiz-adv-x="1460" 
d="M422 1616l342 229l332 -237l-152 -162l-194 147l-193 -159zM715 557l6 -307l-334 -133l-326 303l43 680l263 248l346 -150l2 -172l-170 -108l-15 -332zM1198 879l19 -725l43 -222l-207 -276l-240 -107l49 428l-45 652l-12 413l16 244l578 6l-13 -407zM743 -70l-28 -368
l-547 12l-82 475l330 -4z" />
    <glyph glyph-name="Gbreve" unicode="&#x11e;" horiz-adv-x="1644" 
d="M512 1966l39 160l209 -6l51 -183h123l41 181l186 4l47 -170l-116 -213l-476 4zM692 1632l209 -22l-8 -445l-332 -270l14 -250l310 -207l-45 -438l-447 61l-332 486l62 631zM1468 1464l-137 -524l-350 72l4 600zM909 825l674 13l-24 -426l-173 -23l33 -608l-92 -43
l-387 108l74 625l-107 199z" />
    <glyph glyph-name="gbreve" unicode="&#x11f;" horiz-adv-x="1460" 
d="M473 1694l39 159l209 -6l51 -182h123l41 180l186 4l47 -170l-116 -213l-475 4zM735 557l6 -307l-333 -133l-326 303l43 680l262 248l346 -150l2 -172l-170 -108l-14 -332zM1219 879l18 -725l43 -222l-207 -276l-239 -107l49 428l-45 652l-13 413l17 244l577 6l-12 -407z
M764 -70l-29 -368l-547 12l-82 475l330 -4z" />
    <glyph glyph-name="Gdotaccent" unicode="&#x120;" horiz-adv-x="1644" 
d="M680 2089l203 51l170 -69l8 -265l-189 -43l-196 47zM692 1632l209 -22l-8 -445l-332 -270l14 -250l310 -207l-45 -438l-447 61l-332 486l62 631zM1468 1464l-137 -524l-350 72l4 600zM909 825l674 13l-24 -426l-173 -23l33 -608l-92 -43l-387 108l74 625l-107 199z" />
    <glyph glyph-name="gdotaccent" unicode="&#x121;" horiz-adv-x="1460" 
d="M659 1802l203 51l170 -69l8 -264l-188 -43l-197 47zM735 557l6 -307l-333 -133l-326 303l43 680l262 248l346 -150l2 -172l-170 -108l-14 -332zM1219 879l18 -725l43 -222l-207 -276l-239 -107l49 428l-45 652l-13 413l17 244l577 6l-12 -407zM764 -70l-29 -368l-547 12
l-82 475l330 -4z" />
    <glyph glyph-name="Gcommaaccent" unicode="&#x122;" horiz-adv-x="1644" 
d="M692 1632l209 -22l-8 -445l-332 -270l14 -250l310 -207l-45 -438l-447 61l-332 486l62 631zM1468 1464l-137 -524l-350 72l4 600zM909 825l674 13l-24 -426l-173 -23l33 -608l-92 -43l-387 108l74 625l-107 199zM766 -141l65 -45l25 -271l-162 -188l-127 98l66 105
l-90 14l-8 244z" />
    <glyph glyph-name="gcommaaccent" unicode="&#x123;" horiz-adv-x="1460" 
d="M692 1415l-78 53l-30 326l194 225l154 -116l-80 -127l109 -17l10 -293zM735 557l6 -307l-333 -133l-326 303l43 680l262 248l346 -150l2 -172l-170 -108l-14 -332zM1219 879l18 -725l43 -222l-207 -276l-239 -107l49 428l-45 652l-13 413l17 244l577 6l-12 -407zM764 -70
l-29 -368l-547 12l-82 475l330 -4z" />
    <glyph glyph-name="Hcircumflex" unicode="&#x124;" horiz-adv-x="1865" 
d="M614 1944l342 229l332 -238l-151 -161l-195 147l-192 -160zM1169 391l13 805l-164 10l-6 410l772 20l4 -399l-191 -41l29 -428l-16 -358l194 -78l-4 -334l-817 -4l8 362zM879 -2l-818 -4l9 362l178 35l12 805l-164 10l-6 410l772 20l4 -399l-190 -41l16 -252h170l197 19
l6 -324l-227 29l-138 -2l-12 -256l195 -78z" />
    <glyph glyph-name="hcircumflex" unicode="&#x125;" horiz-adv-x="1597" 
d="M696 1944l342 229l332 -238l-151 -161l-195 147l-193 -160zM227 391l13 846l-144 -10l-26 430l628 20l-41 -399l-18 -516l8 -373l119 -33l2 -358l-707 -4l9 362zM860 367l123 22l8 545l-237 -4l4 276l233 101l303 -64l119 -217l-4 -637l119 -31l8 -356l-657 2z" />
    <glyph glyph-name="Hbar" unicode="&#x126;" horiz-adv-x="1865" 
d="M1169 391l13 805l-164 10l-6 410l772 20l4 -399l-191 -41l29 -428l-16 -358l194 -78l-4 -334l-817 -4l8 362zM879 -2l-818 -4l9 362l178 35l12 805l-164 10l-6 410l772 20l4 -399l-190 -41l6 -115h180l197 19l6 -242l-227 -12l-146 -2l6 -111h164l197 19l6 -283l-227 29
l-142 -2l-8 -86l195 -78z" />
    <glyph glyph-name="hbar" unicode="&#x127;" horiz-adv-x="1679" 
d="M143 -6l9 362l157 35l8 715l-249 -29l-7 246l261 6v31l-144 51l-26 246l628 20l-41 -420l-18 -495l8 -373l119 -33l2 -358zM834 1348l483 12l-17 -234l-477 -4zM942 367l123 22l8 340l-237 -4l4 276l233 39l303 -2l119 -217l-4 -432l119 -31l8 -356l-657 2z" />
    <glyph glyph-name="Imacron" unicode="&#x12a;" horiz-adv-x="944" 
d="M164 2068l278 7l320 -21l20 -297l-278 25l-361 -15zM248 391l6 385l6 420l-164 10l-6 410l772 20l4 -399l-190 -41l29 -428l-17 -358l195 -78l-4 -334l-818 -4l9 362z" />
    <glyph glyph-name="imacron" unicode="&#x12b;" horiz-adv-x="894" 
d="M102 1782l279 6l319 -21l21 -297l-279 25l-360 -14zM254 391l-4 422l-144 -10l-45 420l629 20l-4 -340l-2 -141l8 -373l139 -33l3 -358l-746 -4l8 362z" />
    <glyph glyph-name="Ibreve" unicode="&#x12c;" horiz-adv-x="944" 
d="M104 1966l39 160l209 -6l51 -183h123l41 181l187 4l47 -170l-117 -213l-475 4zM248 391l6 385l6 420l-164 10l-6 410l772 20l4 -399l-190 -41l29 -428l-17 -358l195 -78l-4 -334l-818 -4l9 362z" />
    <glyph glyph-name="ibreve" unicode="&#x12d;" horiz-adv-x="903" 
d="M61 1694l39 159l209 -6l51 -182h123l41 180l187 4l47 -170l-117 -213l-475 4zM262 391l-4 422l-143 -10l-45 420l628 20l-4 -340l-2 -141l8 -373l140 -33l2 -358l-746 -4l8 362z" />
    <glyph glyph-name="Iogonek" unicode="&#x12e;" horiz-adv-x="944" 
d="M328 -496l-107 240l178 252l-338 -2l9 362l178 35l6 385l6 420l-164 10l-6 410l772 20l4 -399l-190 -41l29 -428l-17 -358l195 -78l-4 -334l-306 -2l-81 -232l192 58l102 -80l-63 -184z" />
    <glyph glyph-name="iogonek" unicode="&#x12f;" horiz-adv-x="894" 
d="M342 1831l270 -37l52 -369l-265 -59l-231 51l-10 328zM322 -496l-107 240l178 252l-305 -2l8 362l158 35l-4 422l-144 -10l-45 420l629 20l-4 -340l-2 -141l8 -373l139 -33l3 -358l-267 -2l-82 -232l193 58l102 -80l-63 -184z" />
    <glyph glyph-name="Idotaccent" unicode="&#x130;" horiz-adv-x="944" 
d="M403 2226l271 -37l51 -368l-264 -60l-232 51l-10 328zM248 391l6 385l6 420l-164 10l-6 410l772 20l4 -399l-190 -41l29 -428l-17 -358l195 -78l-4 -334l-818 -4l9 362z" />
    <glyph glyph-name="dotlessi" unicode="&#x131;" horiz-adv-x="894" 
d="M254 391l-4 483l-144 -10l-45 420l629 21l-4 -340l-2 -142l8 -434l139 -33l3 -358l-746 -4l8 362z" />
    <glyph glyph-name="IJ" unicode="&#x132;" horiz-adv-x="2056" 
d="M1569 2l-96 555l20 625l-313 35l-6 421l342 11l436 6l-35 -705l78 -585zM248 391l6 385l6 420l-164 10l-6 410l813 20l4 -399l-231 -41l29 -428l-17 -358l195 -17l-4 -395l-818 -4l9 362zM1233 401l184 -145l53 -301l-487 47l6 399h244z" />
    <glyph glyph-name="ij" unicode="&#x133;" horiz-adv-x="1507" 
d="M1042 1858l291 -37l10 -369l-243 -59l-232 51l-10 328zM383 1831l250 -37l31 -369l-265 -59l-211 51l-10 328zM1040 -483l-96 555l21 706l-170 15l-7 442l179 10l436 6l6 -807l37 -565l-248 -264zM254 391l-4 422l-144 -10l-45 420l629 20l-4 -340l-2 -141l8 -373
l139 -33l3 -358l-746 -4l8 362zM684 -84l205 -125l14 -321l-530 47l26 399h285z" />
    <glyph glyph-name="Jcircumflex" unicode="&#x134;" horiz-adv-x="1169" 
d="M389 1944l342 229l332 -238l-152 -161l-194 147l-193 -160zM682 2l-96 555l20 625l-272 -47l-27 503l322 11l436 6l-35 -705l78 -585zM326 401l204 -145l54 -301l-508 47l-15 399h265z" />
    <glyph glyph-name="jcircumflex" unicode="&#x135;" horiz-adv-x="1196" 
d="M442 1616l342 229l332 -237l-151 -162l-195 147l-192 -159zM729 -545l-96 617l20 706l-170 15l-47 483l219 10l437 6l6 -848l37 -544l-248 -224zM373 -145l205 -125l14 -322l-531 47l27 400h285z" />
    <glyph glyph-name="Kcommaaccent" unicode="&#x136;" horiz-adv-x="1755" 
d="M958 1634l568 2l-23 -391l-354 -217l-12 143l-168 82zM268 391l13 805l-164 10l-6 410l772 20l4 -399l-191 -41l29 -428l-16 -358l194 -78l-4 -334l-817 -4l8 362zM813 707l258 294l455 -585l114 -21l74 -385l-678 -6l-32 334l108 43zM991 -141l66 -45l24 -271l-161 -188
l-127 98l65 105l-90 14l-8 244z" />
    <glyph glyph-name="kcommaaccent" unicode="&#x137;" horiz-adv-x="1591" 
d="M248 391l12 846l-143 -10l-27 430l629 20l-41 -399l-19 -516l-12 -373l119 -33l2 -358l-686 -4l8 362zM836 1380l567 37l-43 -405l-344 -109l18 146l-188 20zM752 664l186 223l444 -451l136 -41l32 -385l-622 -6l-33 334l92 51zM848 -141l65 -45l25 -271l-162 -188
l-127 98l66 105l-90 14l-9 244z" />
    <glyph glyph-name="Lacute" unicode="&#x139;" horiz-adv-x="1404" 
d="M571 2310l256 -217l-344 -352l-217 129zM268 391l13 805l-164 10l-6 410l772 20l4 -399l-191 -41l29 -428l-16 -358l-29 -414l-598 -2l8 362zM795 340l288 135l281 -22l-49 -496l-520 45v338z" />
    <glyph glyph-name="lacute" unicode="&#x13a;" horiz-adv-x="835" 
d="M518 2355l256 -217l-344 -352l-217 129zM227 391l13 846l-144 -10l-26 430l628 20l-41 -399l-18 -516l8 -373l119 -33l2 -358l-707 -4l9 362z" />
    <glyph glyph-name="Lcommaaccent" unicode="&#x13b;" horiz-adv-x="1404" 
d="M268 391l13 805l-164 10l-6 410l772 20l4 -399l-191 -41l29 -428l-16 -358l-29 -414l-598 -2l8 362zM795 340l288 135l281 -22l-49 -496l-520 45v338zM766 -141l65 -45l25 -271l-162 -188l-127 98l66 105l-90 14l-8 244z" />
    <glyph glyph-name="lcommaaccent" unicode="&#x13c;" horiz-adv-x="829" 
d="M227 391l13 846l-144 -10l-26 430l628 20l-41 -399l-18 -516l8 -373l119 -33l2 -358l-707 -4l9 362zM500 -141l65 -45l25 -271l-162 -188l-127 98l66 105l-91 14l-8 244z" />
    <glyph glyph-name="Lcaron" unicode="&#x13d;" horiz-adv-x="1521" 
d="M1004 1608l305 75l116 -81l35 -457l-254 -297l-147 147l108 174l-155 27zM248 391l12 805l-164 10l-6 410l752 20l4 -399l-170 -41l29 -428l-17 -358l-29 -414l-598 -2l9 362zM774 340l350 135l281 -22l-49 -496l-582 45v338z" />
    <glyph glyph-name="lcaron" unicode="&#x13e;" horiz-adv-x="1271" 
d="M809 1628l285 76l116 -82l-6 -457l-213 -297l-147 148l108 174l-155 27zM227 391l13 846l-144 -10l-26 430l628 20l-41 -399l-18 -516l8 -373l139 -33l2 -358l-727 -4l9 362z" />
    <glyph glyph-name="Ldot" unicode="&#x13f;" horiz-adv-x="1404" 
d="M268 391l13 805l-164 10l-6 410l772 20l4 -399l-191 -41l29 -428l-16 -358l-29 -414l-598 -2l8 362zM885 999l202 52l170 -70l9 -264l-189 -43l-196 47zM795 340l288 135l281 -22l-49 -496l-520 45v338z" />
    <glyph glyph-name="ldot" unicode="&#x140;" horiz-adv-x="1183" 
d="M227 391l13 846l-144 -10l-26 430l628 20l-41 -399l-18 -516l8 -373l119 -33l2 -358l-707 -4l9 362zM741 940l203 51l170 -69l8 -265l-188 -43l-197 48z" />
    <glyph glyph-name="Lslash" unicode="&#x141;" horiz-adv-x="1519" 
d="M197 -6l8 362l178 35l4 205l-309 -92l-17 282l330 91l4 319l-164 10l-6 410l772 20l4 -399l-190 -41l29 -428l-17 -358l-28 -414zM911 958l324 119l53 -280l-368 -115zM909 340l289 135l281 -22l-49 -496l-521 45v338z" />
    <glyph glyph-name="lslash" unicode="&#x142;" horiz-adv-x="1349" 
d="M205 -6l8 362l178 35l4 250l-317 -96l-17 282l338 93l4 276l-163 10l-7 410l773 20l4 -399l-191 -41l29 -428l-17 -358l195 -78l-4 -334zM911 999l324 119l53 -280l-368 -95z" />
    <glyph glyph-name="Nacute" unicode="&#x143;" horiz-adv-x="1751" 
d="M958 2310l256 -217l-344 -352l-217 129zM1505 954h-135l-80 222l-213 86l-30 376l663 7v-396l-158 -75zM1171 936l324 -356l2 -537l-293 -6l-405 510l-373 608l-283 45l-39 434l676 -6zM82 -2v395l186 58l31 206l23 283h141l41 -299l35 -190l176 -70l30 -377z" />
    <glyph glyph-name="nacute" unicode="&#x144;" horiz-adv-x="1609" 
d="M881 2028l256 -218l-344 -352l-218 129zM260 391l-4 504l-143 -10l-31 407l629 21l-37 -410l-2 -141l8 -373l119 -33l2 -358l-707 -4l8 362zM893 367l123 22l8 545l-238 -4l5 215l233 162l303 -64l119 -217l-4 -637l119 -31l8 -356l-658 2z" />
    <glyph glyph-name="Ncommaaccent" unicode="&#x145;" horiz-adv-x="1751" 
d="M1505 954h-135l-80 222l-213 86l-30 376l663 7v-396l-158 -75zM1171 936l324 -356l2 -537l-293 -6l-405 510l-373 608l-283 45l-39 434l676 -6zM82 -2v395l186 58l31 206l23 283h141l41 -299l35 -190l176 -70l30 -377zM1012 -141l65 -45l25 -271l-162 -188l-127 98
l66 105l-91 14l-8 244z" />
    <glyph glyph-name="ncommaaccent" unicode="&#x146;" horiz-adv-x="1609" 
d="M260 391l-4 504l-143 -10l-31 407l629 21l-37 -410l-2 -141l8 -373l119 -33l2 -358l-707 -4l8 362zM893 367l123 22l8 545l-238 -4l5 215l233 162l303 -64l119 -217l-4 -637l119 -31l8 -356l-658 2zM889 -141l65 -45l25 -271l-162 -188l-127 98l66 105l-90 14l-9 244z
" />
    <glyph glyph-name="Ncaron" unicode="&#x147;" horiz-adv-x="1751" 
d="M573 1991l136 182l192 -160l195 148l151 -162l-344 -238zM1505 954h-135l-80 222l-213 86l-30 376l663 7v-396l-158 -75zM1171 936l324 -356l2 -537l-293 -6l-405 510l-373 608l-283 45l-39 434l676 -6zM82 -2v395l186 58l31 206l23 283h141l41 -299l35 -190l176 -70
l30 -377z" />
    <glyph glyph-name="ncaron" unicode="&#x148;" horiz-adv-x="1609" 
d="M451 1688l135 182l192 -160l195 148l151 -162l-344 -238zM260 391l-4 504l-143 -10l-31 407l629 21l-37 -410l-2 -141l8 -373l119 -33l2 -358l-707 -4l8 362zM893 367l123 22l8 545l-238 -4l5 215l233 162l303 -64l119 -217l-4 -637l119 -31l8 -356l-658 2z" />
    <glyph glyph-name="Eng" unicode="&#x14a;" horiz-adv-x="1751" 
d="M1485 954h-135l-80 222l-213 86l-31 376l664 7v-396l-158 -75zM1188 -406l-172 113l164 238l2 94l-404 508l-372 608l-283 45l-39 434l676 -6l391 -692l324 -356l2 -537v-115zM61 -2v395l187 58l31 206l22 283h141l41 -299l35 -190l176 -70l31 -377z" />
    <glyph glyph-name="eng" unicode="&#x14b;" horiz-adv-x="1486" 
d="M240 391l-4 504l-144 -10l-31 407l629 21l-37 -410l-2 -141l8 -373l140 -33l2 -358l-727 -4l8 362zM1126 -406l-172 113l31 238l14 239l-4 205l9 524l-238 17l4 215l234 162l303 -64l118 -217l-16 -623l6 -475z" />
    <glyph glyph-name="Omacron" unicode="&#x14c;" horiz-adv-x="1748" 
d="M573 2068l279 7l319 -21l21 -297l-279 25l-360 -15zM1155 -6l-168 18l-8 445l283 299l-23 207l-317 217l-9 460l486 -65l309 -475l-41 -631zM635 1632l168 -16l8 -445l-283 -280l23 -207l317 -238l9 -460l-488 67l-307 473l41 635z" />
    <glyph glyph-name="omacron" unicode="&#x14d;" horiz-adv-x="1507" 
d="M446 1782l279 6l319 -21l21 -297l-279 25l-360 -14zM754 1305l336 -9l342 -571l14 -289l-305 -446l-310 14v350l130 283l-191 246zM664 1298l14 -407l-162 -281l211 -229l12 -385l-254 -6l-409 399l-15 397l351 504z" />
    <glyph glyph-name="Obreve" unicode="&#x14e;" horiz-adv-x="1748" 
d="M532 1966l39 160l209 -6l51 -183h123l41 181l187 4l47 -170l-117 -213l-475 4zM1155 -6l-168 18l-8 445l283 299l-23 207l-317 217l-9 460l486 -65l309 -475l-41 -631zM635 1632l168 -16l8 -445l-283 -280l23 -207l317 -238l9 -460l-488 67l-307 473l41 635z" />
    <glyph glyph-name="obreve" unicode="&#x14f;" horiz-adv-x="1507" 
d="M403 1694l39 159l209 -6l51 -182h123l41 180l187 4l47 -170l-117 -213l-475 4zM754 1305l336 -9l342 -571l14 -289l-305 -446l-310 14v350l130 283l-191 246zM664 1298l14 -407l-162 -281l211 -229l12 -385l-254 -6l-409 399l-15 397l351 504z" />
    <glyph glyph-name="Ohungarumlaut" unicode="&#x150;" horiz-adv-x="1748" 
d="M575 1735l-24 362l291 -41l-60 -330zM872 1724l68 365l295 -51l-148 -322zM1155 -6l-168 18l-8 445l283 299l-23 207l-317 217l-9 460l486 -65l309 -475l-41 -631zM635 1632l168 -16l8 -445l-283 -280l23 -207l317 -238l9 -460l-488 67l-307 473l41 635z" />
    <glyph glyph-name="ohungarumlaut" unicode="&#x151;" horiz-adv-x="1507" 
d="M489 1489l-24 362l291 -41l-60 -329zM786 1479l68 364l295 -51l-148 -322zM754 1305l336 -9l342 -571l14 -289l-305 -446l-310 14v350l130 283l-191 246zM664 1298l14 -407l-162 -281l211 -229l12 -385l-254 -6l-409 399l-15 397l351 504z" />
    <glyph glyph-name="OE" unicode="&#x152;" horiz-adv-x="2148" 
d="M1485 1626l528 29l-41 -473l-207 2l-284 110zM963 1176l-23 446l436 14l4 -399l-18 -475l8 -373l6 -391l-426 -2v395zM676 -35l-594 393l-21 713l310 475l475 66l2 -461l-318 -238l-2 -227l318 -258l-2 -444zM1481 727v201l213 123l217 6l-6 -453l-213 -16zM1456 340
l309 135l322 -22l-49 -496l-582 45v338z" />
    <glyph glyph-name="oe" unicode="&#x153;" horiz-adv-x="2113" 
d="M1507 1354l426 -146l119 -436l-100 -268l-496 -49l-51 252l305 120l-209 113zM1413 1354l-4 -369l-158 -328l160 -346l-4 -362l-369 49l-219 676l246 612zM961 1294l-183 -471l-176 -14l-92 -188l22 -101l283 -139l109 -399l-244 -9l-195 -4l-409 420l-15 397l191 404
l432 158zM1516 299l272 115l231 -60l-69 -354l-443 -43z" />
    <glyph glyph-name="Racute" unicode="&#x154;" horiz-adv-x="1642" 
d="M838 2310l256 -217l-344 -352l-218 129zM936 -14l6 350l88 49l-192 233l2 291l196 140l-8 163l-192 117l-15 342l398 -26l235 -279l-43 -557l-219 -119l211 -272l160 -86l18 -346h-645zM721 1681l6 -247l-12 -557l18 -467l135 -84l-20 -340l-74 6v-2l-692 -6l6 383
l207 63l-12 817l-148 21l-12 411z" />
    <glyph glyph-name="racute" unicode="&#x155;" horiz-adv-x="1312" 
d="M614 2028l256 -218l-344 -352l-217 129zM260 391l-4 504l-143 -10l-31 407l629 21l-37 -410l-2 -141l8 -373l221 -35l21 -358l-828 -2l8 362zM764 745l-2 271l233 260l277 -221l-187 -312z" />
    <glyph glyph-name="Rcommaaccent" unicode="&#x156;" horiz-adv-x="1642" 
d="M936 -14l6 350l88 49l-192 233l2 291l196 140l-8 163l-192 117l-15 342l398 -26l235 -279l-43 -557l-219 -119l211 -272l160 -86l18 -346h-645zM721 1681l6 -247l-12 -557l18 -467l135 -84l-20 -340l-74 6v-2l-692 -6l6 383l207 63l-12 817l-148 21l-12 411zM971 -141
l65 -45l25 -271l-162 -188l-127 98l66 105l-90 14l-9 244z" />
    <glyph glyph-name="rcommaaccent" unicode="&#x157;" horiz-adv-x="1312" 
d="M260 391l-4 504l-143 -10l-31 407l629 21l-37 -410l-2 -141l8 -373l221 -35l21 -358l-828 -2l8 362zM764 745l-2 271l233 260l277 -221l-187 -312zM582 -141l65 -45l25 -271l-162 -188l-127 98l66 105l-91 14l-8 244z" />
    <glyph glyph-name="Rcaron" unicode="&#x158;" horiz-adv-x="1642" 
d="M430 1991l135 182l193 -160l194 148l152 -162l-344 -238zM936 -14l6 350l88 49l-192 233l2 291l196 140l-8 163l-192 117l-15 342l398 -26l235 -279l-43 -557l-219 -119l211 -272l160 -86l18 -346h-645zM721 1681l6 -247l-12 -557l18 -467l135 -84l-20 -340l-74 6v-2
l-692 -6l6 383l207 63l-12 817l-148 21l-12 411z" />
    <glyph glyph-name="rcaron" unicode="&#x159;" horiz-adv-x="1312" 
d="M262 1688l135 182l193 -160l194 148l152 -162l-344 -238zM260 391l-4 504l-143 -10l-31 407l629 21l-37 -410l-2 -141l8 -373l221 -35l21 -358l-828 -2l8 362zM764 745l-2 271l233 260l277 -221l-187 -312z" />
    <glyph glyph-name="Sacute" unicode="&#x15a;" horiz-adv-x="1296" 
d="M674 2310l256 -217l-344 -352l-217 129zM627 1624l516 -22l-47 -406l-211 -25l-250 244zM207 1550l328 74l22 -412l629 -440l69 -401l-102 -297l-307 -117l-2 432l-635 445l-127 266zM602 254l141 -4l17 -293l-621 55l15 473l243 -8z" />
    <glyph glyph-name="sacute" unicode="&#x15b;" horiz-adv-x="1290" 
d="M737 2028l256 -218l-344 -352l-217 129zM565 1311l533 53l43 -465l-195 -25l-330 238zM190 1335l283 -24l43 -412l596 -192l117 -336l-180 -377l-158 -37l-78 432l-631 203l-121 321zM502 283l235 -33l17 -293l-660 51l43 432h199z" />
    <glyph glyph-name="Scedilla" unicode="&#x15e;" horiz-adv-x="1296" 
d="M627 1624l516 -22l-47 -406l-211 -25l-250 244zM207 1550l328 74l22 -412l629 -440l69 -401l-102 -297l-307 -117l-2 432l-635 445l-127 266zM897 -539l-346 15l10 205l250 -35v78l-190 28l-48 137l15 84l-449 39l15 473l243 -8l205 -223l141 -4l11 -174h10l22 -176
l166 -25l76 -217z" />
    <glyph glyph-name="scedilla" unicode="&#x15f;" horiz-adv-x="1290" 
d="M565 1311l533 53l43 -465l-195 -25l-330 238zM190 1335l283 -24l43 -412l596 -192l117 -336l-180 -377l-158 -37l-78 432l-631 203l-121 321zM872 -539l-346 15l11 205l249 -35v78l-190 28l-47 137l14 82l-469 37l43 432h199l166 -157l235 -33l17 -281l8 -69l166 -25
l76 -217z" />
    <glyph glyph-name="Scaron" unicode="&#x160;" horiz-adv-x="1296" 
d="M246 1991l135 182l192 -160l195 148l152 -162l-345 -238zM627 1624l516 -22l-47 -406l-211 -25l-250 244zM207 1550l328 74l22 -412l629 -440l69 -401l-102 -297l-307 -117l-2 432l-635 445l-127 266zM602 254l141 -4l17 -293l-621 55l15 473l243 -8z" />
    <glyph glyph-name="scaron" unicode="&#x161;" horiz-adv-x="1290" 
d="M307 1688l135 182l193 -160l194 148l152 -162l-344 -238zM565 1311l533 53l43 -465l-195 -25l-330 238zM190 1335l283 -24l43 -412l596 -192l117 -336l-180 -377l-158 -37l-78 432l-631 203l-121 321zM502 283l235 -33l17 -293l-660 51l43 432h199z" />
    <glyph glyph-name="Tcommaaccent" unicode="&#x162;" horiz-adv-x="1720" 
d="M657 391l13 785l-47 444l460 16l4 -419l-18 -455l8 -373l187 -33l6 -364l-778 2l8 362zM1192 1626l467 8l-41 -473l-207 2l-223 111zM528 1626l4 -352l-223 -111l-207 -2l-41 473zM950 -141l66 -45l24 -271l-161 -188l-127 98l65 105l-90 14l-8 244z" />
    <glyph glyph-name="tcommaaccent" unicode="&#x163;" horiz-adv-x="1263" 
d="M754 1645l-62 -818l27 -817l-357 -53l-159 367l73 557l-206 26l-9 336l297 105l103 313zM817 1278l293 18l12 -428l-321 31zM799 389l153 223l248 -53l2 -565l-393 20zM786 -141l66 -45l25 -271l-162 -188l-127 98l65 105l-90 14l-8 244z" />
    <glyph glyph-name="Tcaron" unicode="&#x164;" horiz-adv-x="1720" 
d="M537 1991l135 182l192 -160l195 148l151 -162l-344 -238zM657 391l13 785l-47 444l460 16l4 -419l-18 -455l8 -373l187 -33l6 -364l-778 2l8 362zM1192 1626l467 8l-41 -473l-207 2l-223 111zM528 1626l4 -352l-223 -111l-207 -2l-41 473z" />
    <glyph glyph-name="tcaron" unicode="&#x165;" horiz-adv-x="1681" 
d="M1219 1628l284 76l117 -82l-6 -457l-213 -297l-148 148l109 174l-156 27zM754 1645l-62 -818l27 -817l-357 -53l-159 367l73 557l-206 26l-9 336l297 105l103 313zM817 1278l293 18l12 -428l-321 31zM799 389l153 223l248 -53l2 -565l-393 20z" />
    <glyph glyph-name="Tbar" unicode="&#x166;" horiz-adv-x="1720" 
d="M1192 1626l467 8l-41 -473l-207 2l-223 111zM528 1626l4 -352l-223 -111l-207 -2l-41 473zM1157 938l324 16l-6 -286l-310 -6zM1270 -8l-778 2l8 362l157 35l5 271l-338 -15l-17 283l359 -10l4 256l-47 444l460 16l4 -419l-18 -435l8 -393l187 -33z" />
    <glyph glyph-name="tbar" unicode="&#x167;" horiz-adv-x="1325" 
d="M424 -43l-139 367l37 381l-5 -29l-247 26l-9 295l293 21l4 47l-247 27l-9 274l318 23l102 272l293 -16l-61 -695l26 -940zM879 1360l333 -2l-8 -285l-342 -10zM838 971l354 18l-8 -346l-342 31zM860 389l154 162l248 -33l2 -524l-394 20z" />
    <glyph glyph-name="Umacron" unicode="&#x16a;" horiz-adv-x="1736" 
d="M614 2068l279 7l319 -21l21 -297l-279 25l-360 -15zM711 698v-340l182 -161l-10 -238l-365 31l-315 305l41 381l8 520l-164 10l-6 410l772 20l4 -430l-190 -10zM1540 682l-39 -494l-301 -231h-188l4 236l166 196l43 764l-234 47l-6 410l707 26l4 -399l-176 -41z" />
    <glyph glyph-name="umacron" unicode="&#x16b;" 
d="M492 1782l278 6l320 -21l20 -297l-279 25l-360 -14zM1434 915l4 -383l-21 -161l164 51l31 -408l-629 -20l37 409l2 142l-8 373l-152 -48l-6 445l660 35zM743 1348l-55 -422l-29 -596l238 4l-4 -277l-234 -100l-303 63l-118 218l59 624l-215 2l22 428z" />
    <glyph glyph-name="Ubreve" unicode="&#x16c;" horiz-adv-x="1736" 
d="M532 1966l39 160l209 -6l51 -183h123l41 181l187 4l47 -170l-117 -213l-475 4zM711 698v-340l182 -161l-10 -238l-365 31l-315 305l41 381l8 520l-164 10l-6 410l772 20l4 -430l-190 -10zM1540 682l-39 -494l-301 -231h-188l4 236l166 196l43 764l-234 47l-6 410l707 26
l4 -399l-176 -41z" />
    <glyph glyph-name="ubreve" unicode="&#x16d;" 
d="M436 1694l39 159l209 -6l51 -182h123l41 180l186 4l48 -170l-117 -213l-475 4zM1434 915l4 -383l-21 -161l164 51l31 -408l-629 -20l37 409l2 142l-8 373l-152 -48l-6 445l660 35zM743 1348l-55 -422l-29 -596l238 4l-4 -277l-234 -100l-303 63l-118 218l59 624l-215 2
l22 428z" />
    <glyph glyph-name="Uring" unicode="&#x16e;" horiz-adv-x="1736" 
d="M1022 2046l94 -123l-14 -131l-174 -100v151l45 41l-45 53l6 138zM788 2046l89 29l6 -138l-45 -53l45 -41v-151l-174 100l-15 131zM711 698v-340l182 -161l-10 -238l-365 31l-315 305l41 381l8 520l-164 10l-6 410l772 20l4 -430l-190 -10zM1540 682l-39 -494l-301 -231
h-188l4 236l166 196l43 764l-234 47l-6 410l707 26l4 -399l-176 -41z" />
    <glyph glyph-name="uring" unicode="&#x16f;" 
d="M901 1821l94 -123l-14 -131l-174 -101v152l45 41l-45 53l6 137zM668 1821l88 28l6 -137l-45 -53l45 -41v-152l-174 101l-15 131zM1434 915l4 -383l-21 -161l164 51l31 -408l-629 -20l37 409l2 142l-8 373l-152 -48l-6 445l660 35zM743 1348l-55 -422l-29 -596l238 4
l-4 -277l-234 -100l-303 63l-118 218l59 624l-215 2l22 428z" />
    <glyph glyph-name="Uhungarumlaut" unicode="&#x170;" horiz-adv-x="1736" 
d="M647 1735l-24 362l290 -41l-59 -330zM944 1724l68 365l295 -51l-148 -322zM711 698v-340l182 -161l-10 -238l-365 31l-315 305l41 381l8 520l-164 10l-6 410l772 20l4 -430l-190 -10zM1540 682l-39 -494l-301 -231h-188l4 236l166 196l43 764l-234 47l-6 410l707 26
l4 -399l-176 -41z" />
    <glyph glyph-name="uhungarumlaut" unicode="&#x171;" 
d="M514 1489l-25 362l291 -41l-59 -329zM811 1479l68 364l295 -51l-148 -322zM1434 915l4 -383l-21 -161l164 51l31 -408l-629 -20l37 409l2 142l-8 373l-152 -48l-6 445l660 35zM743 1348l-55 -422l-29 -596l238 4l-4 -277l-234 -100l-303 63l-118 218l59 624l-215 2
l22 428z" />
    <glyph glyph-name="Uogonek" unicode="&#x172;" horiz-adv-x="1736" 
d="M711 698v-340l182 -161l-10 -238l-365 31l-315 305l41 381l8 520l-164 10l-6 410l772 20l4 -430l-190 -10zM1290 -442l-395 -54l-107 240l226 315l2 134l166 196l43 764l-234 47l-6 410l707 26l4 -399l-176 -41l20 -514l-39 -494l-301 -231h-74l-67 -193l192 58l103 -80z
" />
    <glyph glyph-name="uogonek" unicode="&#x173;" 
d="M891 -496l-107 240l201 283l35 376l2 142l-8 373l-152 -48l-6 445l660 35l-82 -435l4 -383l-21 -161l164 51l31 -408l-475 -16l-82 -234l192 58l103 -80l-64 -184zM743 1348l-55 -422l-29 -596l238 4l-4 -277l-234 -100l-303 63l-118 218l59 624l-215 2l22 428z" />
    <glyph glyph-name="Wcircumflex" unicode="&#x174;" horiz-adv-x="2486" 
d="M922 1944l342 229l331 -238l-151 -161l-195 147l-192 -160zM1634 -18l-364 909l-96 309l-213 4l-31 428l610 10l334 -831l158 -535l-93 -280zM807 -18l-164 462l-149 385l-168 371l-213 4l-31 428l610 10l330 -825l221 -561l-131 -260zM1880 1640l565 -2l-14 -352
l-303 -403l-66 274l-217 90z" />
    <glyph glyph-name="wcircumflex" unicode="&#x175;" horiz-adv-x="2242" 
d="M782 1636l342 230l332 -238l-151 -162l-195 148l-192 -160zM1430 -18l-357 872l-141 31l-66 407l510 11l424 -965l-65 -342zM1636 1300l566 -2l-15 -352l-301 -313l-76 258l-194 98zM682 -25l-377 879l-192 25l-31 407l569 10l387 -964l-51 -342z" />
    <glyph glyph-name="Ycircumflex" unicode="&#x176;" horiz-adv-x="1576" 
d="M512 1944l342 229l332 -238l-152 -161l-194 147l-193 -160zM420 -12l10 354l162 47l18 273l-284 532l-213 25l-31 407l577 10l402 -833l22 -414l213 -45l11 -344zM971 1634l565 -2l-14 -352l-394 -279l17 203l-162 127z" />
    <glyph glyph-name="ycircumflex" unicode="&#x177;" horiz-adv-x="1576" 
d="M489 1636l342 230l332 -238l-151 -162l-195 148l-192 -160zM698 139l-393 721l-213 25l-31 407l611 11l424 -869l-92 -280zM950 1300l566 -2l-15 -352l-327 -313l-50 258l-194 98zM983 37l-49 -217l-291 -328l-373 186l43 246z" />
    <glyph glyph-name="Ydieresis" unicode="&#x178;" horiz-adv-x="1576" 
d="M1223 2077l8 -265l-150 -69l-219 31l-22 278l194 68zM391 2068l203 52l170 -70l8 -264l-188 -43l-197 47zM420 -12l10 354l162 47l18 273l-284 532l-213 25l-31 407l577 10l402 -833l22 -414l213 -45l11 -344zM971 1634l565 -2l-14 -352l-394 -279l17 203l-162 127z" />
    <glyph glyph-name="Zacute" unicode="&#x179;" horiz-adv-x="1288" 
d="M694 2310l256 -217l-344 -352l-217 129zM700 1638l312 4l157 -75l19 -348l-344 -504l-236 -412v-301h-458l-23 330l268 542l346 504zM627 1628v-160l-275 -284l-229 12l-41 444zM1247 -12l-536 14l10 248l227 196h279z" />
    <glyph glyph-name="zacute" unicode="&#x17a;" horiz-adv-x="1202" 
d="M655 2028l256 -218l-344 -352l-217 129zM614 1290l312 4l155 -51l19 -348l-543 -631l-14 -262h-459l-23 330l594 698zM541 1280v-160l-207 -229l-230 12l-26 379zM1141 4l-496 -2l10 248l207 143h279v-389z" />
    <glyph glyph-name="Zdotaccent" unicode="&#x17b;" horiz-adv-x="1288" 
d="M475 2089l203 51l170 -69l8 -265l-188 -43l-197 47zM700 1638l312 4l157 -75l19 -348l-344 -504l-236 -412v-301h-458l-23 330l268 542l346 504zM627 1628v-160l-275 -284l-229 12l-41 444zM1247 -12l-536 14l10 248l227 196h279z" />
    <glyph glyph-name="zdotaccent" unicode="&#x17c;" horiz-adv-x="1202" 
d="M373 1802l202 51l170 -69l9 -264l-189 -43l-196 47zM614 1290l312 4l155 -51l19 -348l-543 -631l-14 -262h-459l-23 330l594 698zM541 1280v-160l-207 -229l-230 12l-26 379zM1141 4l-496 -2l10 248l207 143h279v-389z" />
    <glyph glyph-name="Zcaron" unicode="&#x17d;" horiz-adv-x="1288" 
d="M287 1991l135 182l192 -160l195 148l152 -162l-345 -238zM700 1638l312 4l157 -75l19 -348l-344 -504l-236 -412v-301h-458l-23 330l268 542l346 504zM627 1628v-160l-275 -284l-229 12l-41 444zM1247 -12l-536 14l10 248l227 196h279z" />
    <glyph glyph-name="zcaron" unicode="&#x17e;" horiz-adv-x="1202" 
d="M246 1688l135 182l192 -160l195 148l152 -162l-345 -238zM614 1290l312 4l155 -51l19 -348l-543 -631l-14 -262h-459l-23 330l594 698zM541 1280v-160l-207 -229l-230 12l-26 379zM1141 4l-496 -2l10 248l207 143h279v-389z" />
    <glyph glyph-name="florin" unicode="&#x192;" horiz-adv-x="1597" 
d="M985 614l-49 -618l-170 -287l-586 -143l-119 403l379 152l80 516l-264 22l27 367l268 14l29 478l159 161l287 -2l-25 -399zM1536 1569l-135 -436l-291 32l2 512zM1087 979l343 -31l-15 -358h-334z" />
    <glyph glyph-name="AEacute" unicode="&#x1fc;" horiz-adv-x="2168" 
d="M1268 2310l256 -217l-344 -352l-217 129zM1505 1626l529 29l-41 -473l-207 2l-285 110zM858 -4l-16 323l135 62l12 815l-10 446l418 -6l4 -399l-19 -475l9 -373l6 -391zM1501 727v201l213 123l217 6l-6 -453l-213 -16zM752 322l24 -326h-715l21 334l194 59l166 365
l179 362l-252 53l30 478l475 -15l21 -499l-2 -119l-156 -283l156 -24v-177l-221 7l-74 -146zM1477 340l309 135l321 -22l-49 -496l-581 45v338z" />
    <glyph glyph-name="aeacute" unicode="&#x1fd;" horiz-adv-x="1970" 
d="M1147 2028l256 -218l-344 -352l-217 129zM109 1239l430 117l-21 -453l-282 -12zM633 1341l403 7l176 -209l-55 -750l113 -49l-6 -340l-277 -23l-227 261l63 747l-209 21zM1303 1341l487 -133l119 -436l-162 -268l-467 -25l6 248l287 90l-12 86l-244 43zM700 811l-20 -254
l-193 -65l13 -185l137 -6l141 -303l-483 -41l-234 309l117 518zM1372 319l273 95l231 -60l-70 -354l-442 -23z" />
    <glyph glyph-name="Scommaaccent" unicode="&#x218;" horiz-adv-x="1296" 
d="M627 1624l516 -22l-47 -406l-211 -25l-250 244zM207 1550l328 74l22 -412l629 -440l69 -401l-102 -297l-307 -117l-2 432l-635 445l-127 266zM602 254l141 -4l17 -293l-621 55l15 473l243 -8zM848 -141l65 -45l25 -271l-162 -188l-127 98l66 105l-90 14l-9 244z" />
    <glyph glyph-name="scommaaccent" unicode="&#x219;" horiz-adv-x="1290" 
d="M565 1311l533 53l43 -465l-195 -25l-330 238zM190 1335l283 -24l43 -412l596 -192l117 -336l-180 -377l-158 -37l-78 432l-631 203l-121 321zM502 283l235 -33l17 -293l-660 51l43 432h199zM745 -141l66 -45l25 -271l-162 -188l-127 98l65 105l-90 14l-8 244z" />
    <glyph glyph-name="circumflex" unicode="&#x2c6;" horiz-adv-x="796" 
d="M61 1944l342 229l332 -238l-151 -161l-195 147l-192 -160z" />
    <glyph glyph-name="caron" unicode="&#x2c7;" horiz-adv-x="796" 
d="M61 1991l136 182l192 -160l195 148l151 -162l-344 -238z" />
    <glyph glyph-name="breve" unicode="&#x2d8;" horiz-adv-x="819" 
d="M61 1966l39 160l209 -6l51 -183h123l41 181l187 4l47 -170l-117 -213l-475 4z" />
    <glyph glyph-name="dotaccent" unicode="&#x2d9;" horiz-adv-x="507" 
d="M66 2089l202 51l170 -69l8 -265l-188 -43l-197 47z" />
    <glyph glyph-name="ring" unicode="&#x2da;" horiz-adv-x="544" 
d="M156 2046l88 29l6 -138l-45 -53l45 -41v-151l-174 100l-15 131zM389 2046l94 -123l-14 -131l-174 -100v151l45 41l-45 53l6 138z" />
    <glyph glyph-name="ogonek" unicode="&#x2db;" horiz-adv-x="688" 
d="M360 164l86 -74l-114 -326l192 58l103 -80l-64 -184l-395 -54l-107 240z" />
    <glyph glyph-name="tilde" unicode="&#x2dc;" horiz-adv-x="962" 
d="M61 1917l261 219l288 -121l95 111l196 -148l-223 -223l-332 113l-141 -137z" />
    <glyph glyph-name="hungarumlaut" unicode="&#x2dd;" horiz-adv-x="806" 
d="M86 1735l-25 362l291 -41l-59 -330zM383 1724l68 365l294 -51l-147 -322z" />
    <glyph glyph-name="mu" unicode="&#x3bc;" 
d="M1413 915l4 -383l-20 -161l164 51l30 -408l-628 -20l36 409l2 142l-8 373l-151 -48l-6 445l659 35zM723 1348l-55 -422l-29 -596l238 4l-5 -334l-258 12l50 -483l-449 2l14 279l50 225l-43 282l65 572l-240 -25l23 428z" />
    <glyph glyph-name="Wgrave" unicode="&#x1e80;" horiz-adv-x="2486" 
d="M1055 2310l305 -440l-217 -129l-344 352zM1634 -18l-364 909l-96 309l-213 4l-31 428l610 10l334 -831l158 -535l-93 -280zM807 -18l-164 462l-149 385l-168 371l-213 4l-31 428l610 10l330 -825l221 -561l-131 -260zM1880 1640l565 -2l-14 -352l-303 -403l-66 274
l-217 90z" />
    <glyph glyph-name="wgrave" unicode="&#x1e81;" horiz-adv-x="2242" 
d="M997 2023l306 -440l-218 -129l-344 352zM1430 -18l-357 872l-141 31l-66 407l510 11l424 -965l-65 -342zM1636 1300l566 -2l-15 -352l-301 -313l-76 258l-194 98zM682 -25l-377 879l-192 25l-31 407l569 10l387 -964l-51 -342z" />
    <glyph glyph-name="Wacute" unicode="&#x1e82;" horiz-adv-x="2486" 
d="M1288 2310l256 -217l-344 -352l-217 129zM1634 -18l-364 909l-96 309l-213 4l-31 428l610 10l334 -831l158 -535l-93 -280zM807 -18l-164 462l-149 385l-168 371l-213 4l-31 428l610 10l330 -825l221 -561l-131 -260zM1880 1640l565 -2l-14 -352l-303 -403l-66 274
l-217 90z" />
    <glyph glyph-name="wacute" unicode="&#x1e83;" horiz-adv-x="2242" 
d="M1233 2028l256 -218l-344 -352l-217 129zM1430 -18l-357 872l-141 31l-66 407l510 11l424 -965l-65 -342zM1636 1300l566 -2l-15 -352l-301 -313l-76 258l-194 98zM682 -25l-377 879l-192 25l-31 407l569 10l387 -964l-51 -342z" />
    <glyph glyph-name="Wdieresis" unicode="&#x1e84;" horiz-adv-x="2486" 
d="M1632 2077l8 -265l-149 -69l-219 31l-23 278l195 68zM801 2068l203 52l170 -70l8 -264l-189 -43l-196 47zM1634 -18l-364 909l-96 309l-213 4l-31 428l610 10l334 -831l158 -535l-93 -280zM807 -18l-164 462l-149 385l-168 371l-213 4l-31 428l610 10l330 -825l221 -561
l-131 -260zM1880 1640l565 -2l-14 -352l-303 -403l-66 274l-217 90z" />
    <glyph glyph-name="wdieresis" unicode="&#x1e85;" horiz-adv-x="2242" 
d="M1534 1810l8 -264l-149 -69l-219 30l-23 279l195 67zM702 1802l203 51l170 -69l8 -264l-188 -43l-197 47zM1430 -18l-357 872l-141 31l-66 407l510 11l424 -965l-65 -342zM1636 1300l566 -2l-15 -352l-301 -313l-76 258l-194 98zM682 -25l-377 879l-192 25l-31 407
l569 10l387 -964l-51 -342z" />
    <glyph glyph-name="Ygrave" unicode="&#x1ef2;" horiz-adv-x="1576" 
d="M645 2310l305 -440l-217 -129l-344 352zM420 -12l10 354l162 47l18 273l-284 532l-213 25l-31 407l577 10l402 -833l22 -414l213 -45l11 -344zM971 1634l565 -2l-14 -352l-394 -279l17 203l-162 127z" />
    <glyph glyph-name="ygrave" unicode="&#x1ef3;" horiz-adv-x="1576" 
d="M688 2023l305 -440l-217 -129l-344 352zM698 139l-393 721l-213 25l-31 407l611 11l424 -869l-92 -280zM950 1300l566 -2l-15 -352l-327 -313l-50 258l-194 98zM983 37l-49 -217l-291 -328l-373 186l43 246z" />
    <glyph glyph-name="endash" unicode="&#x2013;" horiz-adv-x="870" 
d="M74 473l-13 350l392 -12l356 12l-6 -350l-350 19z" />
    <glyph glyph-name="emdash" unicode="&#x2014;" horiz-adv-x="1177" 
d="M74 473l-13 350l576 -12l479 12l-6 -350l-473 19z" />
    <glyph glyph-name="quoteleft" unicode="&#x2018;" horiz-adv-x="600" 
d="M539 903l-326 -76l-117 82l-35 457l275 317l147 -167l-108 -175l155 -26z" />
    <glyph glyph-name="quoteright" unicode="&#x2019;" horiz-adv-x="661" 
d="M449 1683l116 -81l35 -457l-274 -318l-209 168l108 174l-155 27l-9 412z" />
    <glyph glyph-name="quotedblleft" unicode="&#x201c;" horiz-adv-x="1112" 
d="M518 924l-305 -76l-117 82l-35 456l254 297l148 -147l-109 -174l156 -27zM1051 924l-306 -76l-116 82l-35 456l254 297l147 -147l-108 -174l155 -27z" />
    <glyph glyph-name="quotedblright" unicode="&#x201d;" horiz-adv-x="1112" 
d="M594 1608l305 75l117 -81l35 -457l-254 -297l-148 147l109 174l-156 27zM61 1608l306 75l116 -81l35 -457l-254 -297l-147 147l108 174l-155 27z" />
    <glyph glyph-name="quotedblbase" unicode="&#x201e;" horiz-adv-x="1112" 
d="M594 330l305 76l117 -82l35 -457l-254 -297l-148 147l109 174l-156 27zM61 330l306 76l116 -82l35 -457l-254 -297l-147 147l108 174l-155 27z" />
    <glyph glyph-name="dagger" unicode="&#x2020;" horiz-adv-x="1273" 
d="M135 1348l332 -58l-51 359l250 61l213 -68l-64 -350l352 51l45 -202l-61 -174l-336 49v-627l-10 -366l-350 -5l8 994l-326 -62l-76 199z" />
    <glyph glyph-name="daggerdbl" unicode="&#x2021;" horiz-adv-x="1273" 
d="M805 23l-350 -5l2 359l-320 -62l-76 199l74 199l326 -56l2 355l-326 -62l-76 199l74 199l332 -58l-37 359l236 61l213 -68l-64 -350l352 51l45 -202l-61 -174l-336 49l-12 -357l364 50l45 -203l-61 -174l-356 49z" />
    <glyph glyph-name="bullet" unicode="&#x2022;" horiz-adv-x="675" 
d="M68 1061l290 74l246 -103l10 -381l-270 -61l-283 69z" />
    <glyph glyph-name="ellipsis" unicode="&#x2026;" horiz-adv-x="1763" 
d="M287 496l248 -86l-5 -369l-225 -47l-244 55l11 340zM903 496l215 -107l10 -340l-243 -55l-226 47l-4 369zM1454 -6l-215 86l-10 319l244 97l225 -88l4 -349z" />
    <glyph glyph-name="perthousand" unicode="&#x2030;" horiz-adv-x="3119" 
d="M508 684l-12 350l86 140l-90 108l2 371l342 -223l6 -453zM395 1653l13 -350l-86 -140l90 -108l-2 -371l-342 223l-7 453zM1610 1634l-359 -921l-307 -705l-424 -6l385 897l305 735h400zM1690 -20l-334 292l6 453l342 223l2 -370l-90 -109l86 -139zM1802 948l334 -293
l-6 -452l-342 -223l-2 370l90 109l-86 139zM2724 -20l-12 350l86 139l-91 109l3 370l342 -223l6 -453zM2611 948l12 -350l-86 -139l91 -109l-2 -370l-342 223l-7 452z" />
    <glyph glyph-name="Euro" unicode="&#x20ac;" horiz-adv-x="1765" 
d="M1704 1468l-143 -338l-437 7l11 475zM944 825l6 64l80 115l524 36l-45 -219zM1075 553l-127 119l6 90l539 2l-51 -223zM1087 -23l-442 84l-270 363l8 141l-86 2l-234 -12l-2 209l332 -8l4 78l-329 -13l-7 209l232 -8l115 2l8 154l467 454l168 -22l-9 -445l-194 -270
l14 -250l213 -207zM1675 33l-497 -58l-17 445l391 26z" />
    <glyph glyph-name="rupee" unicode="&#x20b9;" horiz-adv-x="1509" 
d="M1231 8l-473 -2l-633 338l4 408l518 75l2 78l-532 -49l-37 367l575 10l2 82l-573 4l-23 350l641 2l746 8l-18 -170l-17 -200l-328 2v-602l-122 -201l-334 -10l303 -109h297zM1155 1223h270v-342h-260z" />
    <glyph glyph-name="trademark" unicode="&#x2122;" horiz-adv-x="1251" 
d="M240 1311l4 235l-15 133l140 7v-127l-4 -136l2 -112l55 -11l2 -108h-234l3 108zM201 1681l2 -104l-68 -35h-61l-13 141zM401 1681l140 2l-13 -141h-61l-68 35zM999 1309l2 241l-10 127l193 6v-120l-58 -13l11 -127l-7 -108l60 -23l-2 -100l-246 -2l4 108zM582 1681h198
l99 -266l86 199l8 -162l-55 -133l-39 -121l-62 2l-67 168l-86 174l-82 17v122zM557 1192v119l57 16l9 62l6 86l37 -9l18 -82l10 -57l54 -20l8 -113z" />
    <glyph glyph-name="onethird" unicode="&#x2153;" horiz-adv-x="1474" 
d="M309 920l6 469l17 239l170 35l78 -82l-13 -131l-12 -285l6 -247l-139 -238l-287 -12l6 217zM1352 1628l-916 -1620l-301 -6l531 969l348 657h338zM61 1454l218 168l-19 -334l-123 -28zM1413 197l-262 -207l-78 10l-8 193l96 77l2 43l-172 111l-4 143l154 109l-6 53
l-179 59l105 205l141 -4l191 -170l12 -88l-25 -172l-137 -57l133 -39zM766 53l61 250h189l8 -307z" />
    <glyph glyph-name="twothirds" unicode="&#x2154;" horiz-adv-x="1603" 
d="M61 1339l136 269l141 30l2 -360l-252 -43zM756 1366l-39 -192l-371 -293l-2 -238l-227 2l-49 285l221 178l200 158l-96 104l-6 268h150zM1481 1628l-916 -1620l-301 -6l879 1626h338zM1542 197l-262 -207l-78 10l-8 193l96 77l2 43l-172 111l-4 143l154 109l-6 53
l-179 59l105 205l141 -4l191 -170l12 -88l-25 -172l-137 -57l133 -39zM397 868l119 13l94 92l127 16l-202 -338l-148 -10zM895 53l61 250h189l8 -307z" />
    <glyph glyph-name="oneeighth" unicode="&#x215b;" 
d="M309 920l6 469l17 239l170 35l78 -82l-13 -131l-12 -285l6 -247l-139 -238l-287 -12l6 217zM1331 1628l-895 -1620l-301 -6l531 969l348 657h317zM61 1454l218 168l-19 -334l-123 -28zM1221 1028l252 -12l118 -203l-43 -176l-102 -55l-84 67l16 109l-94 43zM1442 29
l-101 -13l-57 234l37 63l-86 52l-277 239l-18 141l133 259l98 12l56 -234l-37 -65l76 -66l286 -223l25 -209zM1290 2l-250 14l-118 201l41 174l98 60l84 -78l-10 -111l96 -29z" />
    <glyph glyph-name="threeeighths" unicode="&#x215c;" horiz-adv-x="1734" 
d="M684 989l-186 -323l-101 10l-8 192l76 78l2 43l-152 111l-4 143l154 109l-6 53l-88 59l-6 205l100 17l252 -191l12 -88l-24 -172l-138 -57l133 -39zM61 1593l252 76l11 -307l-172 -27zM1413 1628l-895 -1620l-301 -6l531 969l348 657h317zM1303 1028l251 -12l119 -203
l-43 -176l-102 -55l-84 67l16 109l-94 43zM1524 29l-101 -13l-57 234l37 63l-86 52l-277 239l-18 162l133 238l98 12l56 -234l-37 -65l76 -66l286 -223l25 -209zM90 729l62 250h188l8 -307zM1372 2l-250 14l-118 201l40 174l99 60l84 -78l-10 -111l96 -29z" />
    <glyph glyph-name="fiveeighths" unicode="&#x215d;" horiz-adv-x="1734" 
d="M358 1634l387 13l-36 -285l-148 -4l-207 76zM156 1636l157 -2l4 -237l-6 -312l-104 -34l-139 69l-7 275l2 118zM1413 1628l-895 -1620l-301 -6l531 969l348 657h317zM377 1276l153 16l258 -116l-165 -291l-123 -215l-47 250l71 79l-155 88zM1303 1028l251 -12l119 -203
l-43 -176l-102 -55l-84 67l16 109l-94 43zM1524 29l-101 -13l-57 234l37 63l-86 52l-277 239l-18 141l133 259l98 12l56 -234l-37 -65l76 -66l286 -223l25 -209zM399 881l47 -213l-370 -6l-10 307l153 20l123 -108h57zM1372 2l-250 14l-118 201l40 174l99 60l84 -78
l-10 -111l96 -29z" />
    <glyph glyph-name="seveneighths" unicode="&#x215e;" horiz-adv-x="1689" 
d="M696 1636l-16 -190l-305 -31l-115 -86l-176 4l-23 309zM1368 1628l-895 -1620l-301 -6l530 969l349 657h317zM328 1077l90 303l244 15l-80 -410l-27 -131l-113 -213l-206 16l-68 111zM1257 1028l252 -12l119 -203l-43 -176l-102 -55l-84 67l16 109l-94 43zM1479 29
l-101 -13l-57 234l37 63l-86 52l-277 239l-18 141l133 259l98 12l56 -234l-37 -65l76 -66l286 -223l25 -209zM1327 2l-250 14l-119 201l41 174l99 60l84 -78l-11 -111l97 -29z" />
    <glyph glyph-name="minus" unicode="&#x2212;" horiz-adv-x="1116" 
d="M1042 618l-542 19l-432 -19l-7 351l562 -13l432 13z" />
    <glyph glyph-name="approxequal" unicode="&#x2248;" horiz-adv-x="1542" 
d="M61 918l365 266l590 -172l223 190l201 -258l-412 -303l-571 184l-183 -159zM102 385l365 266l590 -172l223 191l201 -258l-412 -303l-571 184l-183 -160z" />
    <glyph glyph-name="notequal" unicode="&#x2260;" horiz-adv-x="1161" 
d="M1090 721l-392 18l-624 -18l-13 350l392 -12l133 2l252 485l262 -127l-211 -352l207 4zM1083 270l-491 17l-209 -410l-227 127l153 277l-241 -11l-7 351l644 -13l391 13z" />
    <glyph glyph-name="lessequal" unicode="&#x2264;" horiz-adv-x="993" 
d="M897 1374l6 -344l-559 -158l555 -133l-14 -377l-508 189l-301 129l-15 395l330 133zM74 4l-13 289l392 -12l479 12l-6 -289l-453 -2z" />
    <glyph glyph-name="greaterequal" unicode="&#x2265;" horiz-adv-x="993" 
d="M96 1374l506 -166l330 -133l-14 -395l-302 -129l-507 -189l-15 377l555 133l-559 158zM920 4l-400 -2l-452 2l-7 289l480 -12l391 12z" />
    <glyph glyph-name="A.alt1" horiz-adv-x="1837" 
d="M856 1190l-113 455l424 -11l197 -739l211 -506l174 -63l27 -326l-848 -6l-6 336l149 59zM793 322l4 -326h-736l9 328l206 65l166 365l146 319l-240 74l31 479l260 6l111 -389l67 -250l-100 -262l174 -18l22 -170l-241 -27l-54 -125z" />
    <glyph glyph-name="B.alt1" horiz-adv-x="1509" 
d="M227 432l13 744l-164 51l-6 389l583 20l4 -399l-18 -475l8 -373l6 -391l-592 -4l9 362zM762 1630l586 -61l-2 -578l-197 -172l299 -162l-29 -448l-340 -252l-344 41l-6 334l318 57l6 88l-301 162l2 303l250 234l-246 67z" />
    <glyph glyph-name="C.alt1" horiz-adv-x="1462" 
d="M631 1632l188 -22l-8 -445l-358 -399l391 -369l-8 -420l-484 84l-291 424l21 693zM1401 1567l-96 -645l-371 71l-31 619zM1382 33l-456 -58l4 486l330 26z" />
    <glyph glyph-name="D.alt1" horiz-adv-x="1536" 
d="M762 1628l412 23l301 -408l-60 -1034l-264 -252l-395 39l-11 393h254l7 778l-261 7zM227 391l13 805l-144 -10l-26 430l583 20l4 -399l23 -455l-33 -393l6 -391l-592 -4l9 362z" />
    <glyph glyph-name="E.alt1" horiz-adv-x="1437" 
d="M762 1626l549 29l-41 -473l-269 2l-104 84l-119 26zM248 412l12 764l-164 30l-26 410l206 6l398 14l4 -399l-19 -475l9 -373l6 -391l-426 -2l-187 -2l9 362zM778 727v201l213 143l217 -14l-6 -453l-233 4zM754 340l151 35l158 100l280 -2l33 -516l-622 45v338z" />
    <glyph glyph-name="F.alt1" horiz-adv-x="1351" 
d="M762 1626l528 29l-41 -453l-227 -39l-127 84l-137 47zM248 391l-8 805l-164 10l-6 410l583 20l4 -399l-18 -414l39 -434l203 -37l28 -350l-848 -8l9 362zM758 727v201l213 123l217 -15l-6 -432l-213 -16z" />
    <glyph glyph-name="G.alt1" horiz-adv-x="1591" 
d="M618 1645l168 -33l-4 -424l-286 -344l14 -168l342 -256l-21 -377l-350 16l-420 347l21 788zM1399 1612l-125 -625l-377 53l-27 580zM858 850l672 47l-4 -426l-170 -31l65 -606l-90 -49l-393 90l43 625l-139 153z" />
    <glyph glyph-name="H.alt1" horiz-adv-x="1865" 
d="M696 1219l-12 -805l164 -11l6 -409l-772 -21l-4 400l190 41l-28 428l16 358l-195 57l5 355l817 4l-9 -363zM1004 -27l-5 400l191 41l-16 252h-170l-218 -19l15 303l227 -8l137 2l13 256l-195 78l4 334l817 4l-8 -363l-178 -34l-12 -805l163 -11l7 -409z" />
    <glyph glyph-name="I.alt1" horiz-adv-x="927" 
d="M680 1198l-6 -364l-6 -400l184 -31l6 -409h-792l-5 399l191 41l-8 387l-4 379l-174 37l4 395l796 4l-8 -424z" />
    <glyph glyph-name="J.alt1" horiz-adv-x="1126" 
d="M690 8l-63 101l26 546l-47 508l4 80l-102 -47l-150 47l-30 395l301 11l436 6l-31 -412l31 -999zM326 401l229 -96l-20 -295l-459 -8l-15 399h265z" />
    <glyph glyph-name="K.alt1" horiz-adv-x="1755" 
d="M248 391l10 785l-162 30l-6 410h752l4 -399l-170 -41l-33 -428l66 -359l153 -78l-4 -334l-797 -4l9 363zM938 1614l567 2l19 -391l-416 -217l8 143l-168 82zM731 748l279 196l495 -549l156 -61l33 -344l-719 -6l-12 333l108 64z" />
    <glyph glyph-name="L.alt1" horiz-adv-x="1396" 
d="M248 412l12 743l-164 51l-6 410l772 20l4 -399l-190 -61l8 -408l25 -358l-70 -414l-578 -2l9 362zM795 360l118 43l150 72l260 -22l12 -476l-581 25z" />
    <glyph glyph-name="M.alt1" horiz-adv-x="2228" 
d="M1532 399l31 674l-56 545l639 18l4 -399l-190 -41l29 -428l-17 -350l195 -78l-4 -354l-817 16l8 342zM141 1634l660 -6l350 -887l266 727l49 -446l-149 -432l-164 -604l-229 6l-226 594l-284 583l-250 54zM61 -14v395l166 57l19 199l28 309l119 10l82 -315l23 -203
l196 -69l31 -377z" />
    <glyph glyph-name="N.alt1" horiz-adv-x="1771" 
d="M1505 893l-135 20l-80 263l-192 86l-11 376l623 7v-396l-158 -75zM1171 915l365 -438l-18 -434l-314 -6l-426 571l-352 547l-283 25l-18 454l614 -6zM61 -2v395l207 58l31 206l23 283h141l41 -299l35 -190l217 -70l10 -377z" />
    <glyph glyph-name="O.alt1" horiz-adv-x="1794" 
d="M1069 1657l557 -414l107 -627l-256 -499l-476 -127l-38 461l288 274v207l-309 250l-16 442zM602 -6l-438 399l-103 623l252 506l498 116l20 -460l-292 -248l-4 -207l317 -272l37 -447z" />
    <glyph glyph-name="P.alt1" horiz-adv-x="1536" 
d="M1120 485l-307 105l6 278l221 109l15 205l-240 229l6 260l377 -6l277 -217l-2 -721zM721 1661l6 -227l-12 -557l-2 -476l196 -84v-360l-155 6v-2l-693 -6l7 383l206 63l-12 744l-168 61l-12 432z" />
    <glyph glyph-name="Q.alt1" horiz-adv-x="1708" 
d="M1135 76l-168 18l-9 445l236 264l-16 139l-277 238l-8 460l424 -45l330 -495l-41 -590zM614 1632l168 4l9 -465l-242 -239l24 -324l275 -121l8 -419l-487 67l-308 432l41 676zM801 6l356 -76h375l31 -194l-375 -303l-481 274l-43 180z" />
    <glyph glyph-name="R.alt1" horiz-adv-x="1642" 
d="M1065 -43l-248 641l2 311l234 103l10 190l-250 127l-12 350l397 -14l277 -217l-17 -619l-287 -178l193 -262l199 -45l18 -387h-516zM700 1681l7 -247l-13 -557l19 -496l135 -64v-360l-94 6v-2l-693 -6l7 383l186 43l8 825l-168 21l-12 452z" />
    <glyph glyph-name="S.alt1" horiz-adv-x="1312" 
d="M203 1546l329 70l35 -414l684 -575l-53 -508l-383 -176l-16 432l-641 493l-97 275zM635 1614l547 -33l-56 -424l-211 -20l-276 268zM375 471l321 -233l13 -293l-600 65l22 473z" />
    <glyph glyph-name="T.alt1" horiz-adv-x="1679" 
d="M528 1647l4 -353l-223 -110l-207 -2l-41 473zM616 432l9 445l-2 763l440 -4l-16 -419l2 -455l-13 -332l207 -53l6 -365l-839 -18l8 383zM1151 1626l467 8l-21 -473l-206 2l-244 111z" />
    <glyph glyph-name="U.alt1" horiz-adv-x="1751" 
d="M725 780v-381l162 -120l-10 -279l-365 10l-295 326l21 422l8 418l-185 30l15 451l813 -21l4 -430l-170 -30zM1534 702l-39 -493l-281 -211h-208l4 276l166 156l43 744l-193 26l-6 430l666 6l4 -399l-156 -61v-474z" />
    <glyph glyph-name="V.alt1" horiz-adv-x="1705" 
d="M1094 1640l544 19l7 -393l-293 -342l-66 252l-217 90zM766 -18l-461 1157l-233 65l-11 428l611 10l491 -1345l-92 -301z" />
    <glyph glyph-name="W.alt1" horiz-adv-x="2486" 
d="M848 -18l-205 503l-338 654l-213 65l-31 428l611 10l329 -825l263 -561l-111 -260zM1614 2l-303 705l-158 452l-192 66l-52 407l611 10l272 -790l260 -576l-92 -280zM1798 1640l627 -2l-15 -393l-282 -383l-86 254l-217 111z" />
    <glyph glyph-name="X.alt1" horiz-adv-x="1482" 
d="M578 1618l608 -1172l225 -67l10 -377l-487 -10l-635 1196l-203 33l-35 409zM895 1622l522 -2l-18 -391l-334 -228l-8 195l-160 68zM610 -12l-508 22l-22 391l360 228l29 -174l166 -119z" />
    <glyph glyph-name="Y.alt1" horiz-adv-x="1536" 
d="M950 1634l525 -2l-17 -389l-371 -242l17 224l-162 106zM399 -12l-10 354l182 68l-2 313l-243 451l-234 45l-31 407l557 -10l402 -793l22 -393l193 -86l10 -344z" />
    <glyph glyph-name="Z.alt1" horiz-adv-x="1325" 
d="M737 1659l428 -10l19 -430l-303 -443l-283 -446l27 -328h-459l-105 330l330 542l346 504v281zM643 1649v-201l-295 -285l-229 -8l-41 485zM1264 -12l-537 14l-31 289l248 155h299z" />
    <glyph glyph-name="a.alt1" horiz-adv-x="1425" 
d="M127 1217l442 98l-20 -432l-279 -43zM659 1307h392l204 -256l-79 -668l176 -49l12 -334l-477 -10l-117 311l90 604l-215 29zM735 782l-43 -266l-225 -82l4 -92l193 -53l92 -291h-475l-220 303l136 463z" />
    <glyph glyph-name="b.alt1" horiz-adv-x="1472" 
d="M225 391l13 826l-164 30l-6 410l628 20l-41 -338l2 -618l-28 -393l125 -330l-693 -45l7 389zM762 891l-6 307l360 129l295 -301l-61 -897l-224 -174l-286 82l-88 293l225 -8l6 589z" />
    <glyph glyph-name="c.alt1" horiz-adv-x="1298" 
d="M1237 1223l-135 -437l-291 33l2 512zM446 1325l283 4l2 -340l-225 -231l16 -305l201 -105l-21 -405l-395 100l-246 389l29 512zM1217 49l-424 -108l51 483l291 33z" />
    <glyph glyph-name="d.alt1" horiz-adv-x="1474" 
d="M897 2l-68 309l13 475l-19 517l-176 43v360l135 -6v2l506 -14l-47 -426l12 -867l148 21l12 -391zM360 1305l363 -129l-6 -279l-195 -51l-10 -518l229 -45l35 -271l-438 -35l-277 218l23 864z" />
    <glyph glyph-name="e.alt1" horiz-adv-x="1370" 
d="M797 1348l506 -215l6 -478l-133 -151l-500 12l-2 227l313 72l-209 117zM68 985l424 363h215l-17 -451l-207 -186l19 -160l190 -227l47 -349h-272l-406 394zM813 -14l-27 329l238 101l240 -47l-58 -385z" />
    <glyph glyph-name="f.alt1" horiz-adv-x="1267" 
d="M1206 1550l-106 -438l-273 49l-6 492zM317 332l7 317l-246 8l-17 371l207 19l23 436l158 166l286 2l-18 -400l18 -497l19 -432l237 -33l2 -359l-858 4l8 363zM825 981l363 -31l-14 -338h-334z" />
    <glyph glyph-name="g.alt1" horiz-adv-x="1449" 
d="M719 1030l-207 -76l4 -395l209 -14l12 -262l-186 -164l-463 74l-27 913l326 242l326 -105zM840 647l-17 701l566 -50l-3 -360l-157 -107l-6 -481l55 -489l-442 -303l20 573zM748 -137l-17 -305h-592l-69 419l366 48z" />
    <glyph glyph-name="h.alt1" horiz-adv-x="1597" 
d="M227 371l13 866l-144 -10l-26 430l628 20l-41 -399l23 -639l-33 -270l119 -33l-18 -359l-687 -4l9 363zM860 326l123 43l8 524l-217 37l-16 276l405 121l271 -219l-25 -739l119 -31l8 -356l-678 2z" />
    <glyph glyph-name="i.alt1" horiz-adv-x="903" 
d="M295 1778l303 -4l94 -279l-127 -152l-309 -12l-139 260zM227 391l17 422l-164 31l-4 358l649 41l-25 -340l-2 -141l-18 -373l160 -33l2 -358l-781 -4l9 362z" />
    <glyph glyph-name="j.alt1" horiz-adv-x="1177" 
d="M631 1886l315 -4l94 -289l-131 -155l-319 -15l-146 271zM410 1249l677 43l-8 -643l37 -799l-336 -292l-186 245l47 476l-4 475l-217 51zM434 -88l248 -406l-567 -26l-54 397z" />
    <glyph glyph-name="k.alt1" horiz-adv-x="1603" 
d="M260 391l-29 846l-163 31l-7 389l629 20l-41 -399l23 -516l-13 -373l140 -33l2 -358l-727 -4l8 362zM809 1450l518 -6l-22 -385l-246 -160l-53 150l-189 20zM764 664l229 182l387 -457l154 -67l8 -312l-643 -6l-6 318l86 67z" />
    <glyph glyph-name="l.alt1" horiz-adv-x="890" 
d="M256 389l4 828l-184 71l14 369l629 20l-33 -602l-10 -313l-2 -375l151 -82l4 -307l-768 -4l9 362z" />
    <glyph glyph-name="m.alt1" horiz-adv-x="2512" 
d="M815 1104l346 201l344 -175l11 -741l124 -20l13 -361l-703 -2v346l144 37l-4 416l-275 53v246zM227 391l17 483l-164 31l-4 359l669 41l-45 -340l-2 -142l2 -434l140 -33l2 -358l-781 -4l9 362zM1614 1104l346 201l344 -175l10 -741l125 -20l12 -361l-702 -2v346l143 37
l-4 416l-274 53v246z" />
    <glyph glyph-name="n.alt1" horiz-adv-x="1714" 
d="M227 391l17 483l-164 31l-4 359l669 41l-45 -340l-2 -142l2 -434l140 -33l2 -358l-781 -4l9 362zM815 1104l346 201l344 -175l11 -741l124 -20l13 -361l-703 -2v346l144 37l-4 416l-275 53v246z" />
    <glyph glyph-name="o.alt1" horiz-adv-x="1478" 
d="M766 -10l-336 8l-336 373l-33 456l318 478l309 -15v-350l-174 -299l236 -229zM856 -4l-14 407l121 261l-170 249l-13 385l254 7l369 -420l14 -398l-309 -483z" />
    <glyph glyph-name="p.alt1" horiz-adv-x="1460" 
d="M1104 -39l-340 129l6 266l201 62l-6 446l-205 33l-15 293l369 82l244 -174l41 -836zM233 836l-157 49l-6 368l589 17l-22 -371l29 -393l-2 -516l67 -432l-655 12l-15 369l185 71z" />
    <glyph glyph-name="q.alt1" horiz-adv-x="1521" 
d="M731 356l6 -266l-340 -129l-336 260l41 938l285 174l287 -82l67 -293l-204 -32l-7 -508zM1268 897l-13 -866l205 -72l-14 -389l-676 -12l68 432l-2 516l28 455l-104 370l692 -16l-6 -369z" />
    <glyph glyph-name="r.alt1" horiz-adv-x="1292" 
d="M233 391l-4 524l-163 31l-5 359l650 41l-25 -340l-2 -142l2 -475l201 -33l2 -358l-821 -4l8 362zM788 836l9 268l151 235l283 -168l-103 -383z" />
    <glyph glyph-name="s.alt1" horiz-adv-x="1290" 
d="M565 1311l533 53l43 -465l-195 -25l-330 238zM190 1335l283 -24l43 -412l596 -192l117 -336l-180 -377l-158 -37l-78 432l-631 203l-121 321zM502 283l235 -33l17 -293l-660 51l43 432h199z" />
    <glyph glyph-name="t.alt1" horiz-adv-x="1263" 
d="M754 1665l-62 -838l27 -817l-377 -12l-98 264l32 619l-206 6l-9 356l277 2l61 416zM817 1257l334 39l12 -428l-362 31zM799 389l174 223l227 -53l2 -565l-393 20z" />
    <glyph glyph-name="u.alt1" horiz-adv-x="1646" 
d="M1407 915l4 -321l-20 -182l163 -52l31 -346l-649 -20l57 409l-6 474l-182 38l24 400l619 35zM717 1348l-55 -422l-29 -535l237 -119l-24 -215l-316 -100l-313 141l53 764l-209 88l17 342z" />
    <glyph glyph-name="v.alt1" horiz-adv-x="1576" 
d="M743 -18l-381 809l-274 45l-27 456l611 11l448 -1027l-92 -280zM950 1300l566 -2l-15 -352l-287 -313l-49 237l-194 58z" />
    <glyph glyph-name="w.alt1" horiz-adv-x="2222" 
d="M1389 23l-316 872l-162 31l-65 407l489 10l424 -964l-65 -342zM1595 1341l566 -2l-15 -372l-301 -293l6 217l-215 78zM662 16l-357 879l-192 -16l-52 448l590 10l367 -964l-51 -342z" />
    <glyph glyph-name="x.alt1" horiz-adv-x="1456" 
d="M872 -10l-417 669l-117 183l-266 88l-11 356l549 10l291 -565l311 -352l162 -33l-6 -369zM883 1288l512 -2l-82 -403l-291 -76l2 115l-113 65zM616 -14l-507 2l20 350l317 131l9 -137l143 -113z" />
    <glyph glyph-name="y.alt1" horiz-adv-x="1562" 
d="M754 51l-430 754l-232 80l-31 407l572 56l463 -914l-92 -383h-250zM930 1300l565 19l6 -373l-327 -313l-9 205l-174 77zM983 -66l-117 -458h-389l-170 196l12 273z" />
    <glyph glyph-name="z.alt1" horiz-adv-x="1243" 
d="M655 1331l467 -26l19 -410l-604 -610l47 -283h-459l-64 371l656 657zM561 1321l41 -201l-227 -229l-236 6l-20 385zM1182 4l-496 -2l-51 248l309 205l238 -62v-389z" />
    </font>
</defs>
</svg>
