<?xml version="1.0" standalone="no"?>
<!DOCTYPE svg PUBLIC "-//W3C//DTD SVG 20010904//EN"
 "http://www.w3.org/TR/2001/REC-SVG-20010904/DTD/svg10.dtd">
<svg version="1.0" xmlns="http://www.w3.org/2000/svg"
 width="3172.000000pt" height="3172.000000pt" viewBox="0 0 3172.000000 3172.000000"
 preserveAspectRatio="xMidYMid meet">
<metadata>
Created by potrace 1.14, written by Peter Selinger 2001-2017
</metadata>
<g transform="translate(0.000000,3172.000000) scale(0.100000,-0.100000)"
fill="#000000" stroke="none">
<path d="M2798 27804 c-2 -1 -28 -5 -58 -8 -30 -4 -66 -9 -80 -12 -14 -2 -36
-6 -49 -9 -23 -4 -50 -31 -51 -49 0 -5 -6 -17 -14 -25 -7 -9 -27 -41 -43 -71
-17 -30 -63 -111 -103 -180 -40 -69 -81 -141 -92 -160 -36 -62 -153 -265 -163
-282 -5 -9 -27 -47 -49 -85 -21 -37 -51 -88 -66 -113 -15 -25 -73 -125 -129
-222 -57 -98 -107 -178 -111 -178 -5 0 -33 9 -62 20 -59 22 -271 76 -333 85
-23 3 -52 8 -65 11 -44 10 -354 13 -410 4 -30 -5 -71 -11 -90 -14 -181 -26
-397 -137 -539 -278 -134 -131 -241 -332 -266 -495 -3 -21 -7 -50 -10 -63 -8
-40 -8 -161 -1 -220 25 -206 124 -385 279 -508 186 -148 340 -151 462 -10 101
118 203 421 231 687 6 55 9 59 31 34 10 -12 59 -56 108 -99 50 -43 98 -86 107
-94 16 -14 15 -19 -13 -63 -16 -26 -29 -51 -29 -57 0 -6 39 -10 98 -10 l97 -1
46 -42 c41 -38 147 -131 203 -180 12 -10 30 -26 41 -36 38 -32 300 -263 369
-325 38 -33 74 -65 80 -71 6 -5 61 -53 121 -105 61 -52 115 -100 120 -106 6
-6 44 -39 85 -75 41 -35 77 -66 80 -69 7 -7 167 -148 205 -181 27 -24 105 -92
180 -158 17 -15 71 -63 120 -106 50 -44 95 -84 101 -90 7 -5 40 -35 75 -65 35
-30 86 -75 114 -100 28 -25 84 -74 125 -110 95 -83 176 -155 217 -191 18 -16
36 -29 41 -29 5 0 130 59 278 131 266 130 449 219 736 358 82 39 153 71 159
71 5 0 53 -25 105 -55 53 -30 97 -55 99 -55 2 0 30 -15 62 -34 32 -18 78 -45
103 -58 51 -29 368 -207 605 -341 88 -49 185 -104 215 -120 30 -16 60 -33 65
-37 10 -8 62 -36 175 -98 36 -19 70 -38 75 -43 6 -4 35 -21 65 -37 30 -16 105
-58 165 -92 61 -34 130 -74 155 -88 25 -14 95 -53 155 -87 61 -34 135 -75 165
-92 48 -26 120 -67 330 -185 25 -14 113 -64 195 -110 83 -47 170 -96 195 -110
25 -14 117 -65 205 -115 88 -49 183 -102 210 -118 28 -15 102 -57 165 -93 63
-36 135 -76 160 -90 25 -14 311 -175 635 -357 325 -183 611 -344 637 -358 26
-15 98 -55 160 -91 126 -71 975 -548 1053 -591 28 -15 79 -45 115 -65 36 -20
88 -50 115 -65 54 -29 56 -31 280 -158 83 -46 175 -98 205 -115 57 -31 126
-69 290 -162 52 -29 124 -70 160 -90 36 -20 88 -49 115 -65 28 -16 71 -40 97
-54 26 -14 102 -57 170 -95 68 -38 206 -116 308 -173 102 -57 192 -108 200
-113 8 -5 47 -27 85 -48 39 -22 108 -61 155 -87 99 -56 164 -93 350 -197 74
-42 151 -85 170 -97 19 -12 47 -26 63 -32 15 -6 27 -15 27 -21 0 -5 -29 -82
-64 -171 -83 -212 -271 -736 -280 -782 -1 -5 -23 -76 -49 -157 -41 -128 -133
-436 -142 -478 -2 -8 -17 -64 -33 -125 -49 -180 -135 -540 -166 -695 -40 -203
-66 -334 -70 -366 -6 -37 -8 -49 -20 -114 -3 -14 -8 -43 -11 -65 -3 -22 -7
-51 -10 -65 -2 -14 -7 -45 -10 -70 -2 -25 -6 -54 -9 -65 -4 -20 -11 -71 -22
-162 -3 -27 -7 -59 -9 -73 -6 -44 -14 -123 -21 -195 -3 -38 -7 -88 -9 -110
-19 -194 -27 -406 -28 -665 -1 -214 8 -496 17 -550 2 -14 7 -63 11 -110 3 -47
8 -94 10 -105 2 -11 7 -45 10 -75 19 -188 78 -474 159 -770 31 -113 126 -366
187 -498 22 -46 39 -85 39 -86 0 -10 153 -281 195 -346 168 -260 340 -458 606
-696 65 -57 214 -167 329 -242 181 -118 208 -135 330 -204 439 -250 811 -416
1196 -533 124 -38 370 -99 439 -110 22 -3 47 -7 55 -10 8 -2 69 -11 135 -20
329 -43 682 -39 980 11 50 9 104 18 120 21 17 2 57 11 90 20 33 8 71 17 85 19
83 15 409 124 545 184 252 110 447 205 645 314 45 26 84 46 86 46 2 0 27 14
56 31 191 113 555 286 684 324 77 24 69 22 149 38 131 26 198 7 285 -82 56
-57 127 -184 165 -296 9 -27 21 -59 25 -70 13 -34 69 -239 77 -285 2 -14 8
-41 13 -60 11 -44 50 -225 56 -265 3 -16 14 -75 24 -130 11 -55 22 -113 25
-130 2 -16 7 -41 10 -55 10 -51 22 -116 30 -165 3 -16 7 -41 10 -55 3 -14 7
-39 9 -55 3 -17 7 -42 10 -55 7 -29 14 -71 21 -120 3 -19 10 -55 15 -80 5 -25
17 -83 25 -130 9 -47 19 -96 21 -110 9 -46 75 -365 78 -380 2 -8 11 -51 21
-95 29 -143 125 -525 176 -705 72 -251 204 -652 250 -755 4 -11 22 -54 38 -97
232 -595 618 -1229 996 -1637 252 -272 571 -543 807 -686 9 -5 66 -40 127 -78
428 -261 958 -459 1436 -537 33 -5 83 -12 110 -15 28 -3 73 -8 100 -11 123
-15 474 -20 590 -9 33 3 85 8 115 11 30 2 105 11 165 20 94 12 148 22 321 59
38 8 218 55 249 65 207 66 413 142 532 196 28 13 55 24 58 24 13 0 374 185
485 248 233 134 483 299 719 475 125 94 437 345 506 408 114 103 152 138 184
164 20 17 167 161 326 320 257 257 345 349 491 515 21 24 46 51 54 60 8 9 38
43 65 75 28 33 66 78 86 100 27 31 200 241 338 411 69 85 343 450 445 593 204
284 636 935 636 958 0 3 10 20 23 37 13 17 27 38 30 46 4 8 18 33 32 55 14 22
28 47 32 55 4 8 27 49 53 90 77 128 75 121 61 203 -6 39 -13 77 -15 82 -1 6
-6 24 -11 40 -44 170 -181 395 -337 555 -54 55 -148 138 -174 153 -8 4 -14 13
-14 20 0 10 -81 58 -385 225 -33 19 -116 66 -185 105 -69 38 -150 84 -180 100
-30 16 -59 33 -65 37 -5 4 -30 19 -55 32 -25 14 -110 63 -190 108 -80 45 -172
97 -205 115 -59 31 -218 120 -545 305 -91 51 -183 103 -205 115 -22 12 -58 32
-80 45 -22 12 -80 45 -130 72 -49 28 -115 65 -145 83 -30 18 -116 67 -190 108
-164 90 -198 109 -370 207 -74 42 -164 93 -200 112 -36 20 -112 63 -170 95
-146 83 -1445 814 -1500 845 -25 14 -225 126 -445 250 -220 124 -420 236 -445
250 -45 25 -479 269 -575 323 -27 16 -99 56 -160 90 -60 34 -225 126 -365 205
-271 152 -310 174 -515 289 -71 40 -164 92 -205 116 -182 103 -238 134 -285
161 -113 62 -219 121 -370 207 -88 50 -178 100 -200 112 -66 36 -1807 1015
-1845 1038 -19 11 -53 30 -75 42 -22 12 -114 64 -205 115 -91 51 -185 104
-210 118 -25 14 -94 53 -155 87 -60 34 -130 73 -155 87 -25 14 -189 106 -365
205 -176 99 -340 191 -365 205 -25 14 -97 54 -160 90 -63 35 -245 138 -405
227 -159 90 -339 192 -400 226 -60 34 -276 156 -480 270 -203 114 -419 235
-480 270 -60 34 -137 77 -170 95 -33 18 -161 90 -285 160 -216 122 -254 143
-365 205 -27 16 -99 56 -160 90 -60 34 -132 75 -160 90 -27 15 -102 57 -165
93 -63 36 -135 76 -160 90 -25 14 -169 95 -320 180 -151 85 -300 169 -330 185
-30 16 -59 33 -65 37 -5 4 -37 22 -70 40 -33 18 -238 133 -455 255 -217 122
-415 233 -440 247 -25 14 -169 95 -320 180 -151 85 -297 167 -325 183 -27 15
-102 57 -165 93 -63 36 -135 76 -160 90 -25 14 -133 75 -240 135 -107 60 -233
131 -280 157 -92 51 -143 80 -205 115 -260 147 -348 197 -395 223 -174 96
-347 193 -360 202 -8 5 -44 26 -80 45 -36 19 -87 47 -115 63 -27 16 -160 91
-295 167 -135 75 -287 162 -338 191 -51 30 -95 54 -96 54 -4 0 -190 103 -216
120 -8 5 -69 39 -135 76 -66 37 -185 104 -265 149 -186 105 -552 311 -610 343
-25 14 -97 54 -160 90 -63 35 -133 75 -155 87 -22 13 -58 33 -80 45 -22 13
-65 36 -95 53 -30 16 -59 33 -65 37 -5 4 -37 22 -70 40 -52 28 -309 173 -415
233 -19 11 -55 31 -80 45 -25 14 -117 66 -205 115 -88 50 -194 109 -235 132
-41 24 -129 73 -195 110 -66 37 -140 79 -165 93 -25 14 -97 54 -160 90 -63 36
-135 76 -160 90 -25 14 -151 84 -280 157 -130 73 -258 145 -285 161 -28 15
-151 84 -275 154 -124 70 -252 142 -285 160 -92 51 -121 67 -245 138 -63 36
-135 76 -160 90 -25 14 -71 40 -103 58 -32 19 -60 34 -62 34 -3 0 -34 18 -70
40 -36 22 -67 40 -69 40 -2 0 -59 32 -126 70 -67 39 -124 70 -126 70 -2 0 -21
10 -42 23 -20 13 -66 39 -102 59 -119 64 -185 101 -220 123 -19 12 -42 25 -50
28 -8 4 -31 17 -50 28 -19 12 -53 31 -75 42 -22 12 -42 23 -44 24 -2 1 136
188 306 415 300 401 414 556 460 621 12 18 70 97 128 177 110 152 177 274 193
351 11 57 -6 129 -39 166 -26 28 -94 62 -137 69 -15 2 -38 7 -51 10 -24 5
-214 5 -266 -1 -186 -20 -179 -15 -268 -173 -43 -75 -112 -195 -153 -267 -42
-71 -86 -148 -99 -170 -54 -94 -318 -550 -385 -665 -40 -69 -81 -141 -92 -160
-22 -38 -60 -103 -64 -109 -2 -2 -16 6 -32 18 -17 12 -32 21 -35 21 -2 0 -49
25 -103 56 -55 31 -117 66 -139 78 -22 12 -92 52 -155 88 -63 35 -135 76 -160
90 -25 14 -72 40 -105 58 -33 19 -61 35 -63 36 -2 1 79 112 179 246 549 733
751 1015 798 1117 41 90 53 189 27 239 -62 119 -283 150 -641 89 -15 -3 -88
-122 -272 -438 -139 -239 -261 -450 -271 -469 -21 -39 -264 -457 -284 -490 -7
-11 -16 -20 -19 -20 -5 0 -502 276 -539 300 -15 9 -129 73 -202 113 l-37 20
17 29 c9 15 20 28 23 28 4 0 10 8 13 18 3 9 16 28 29 42 12 14 131 171 263
350 488 660 544 740 585 849 37 99 29 183 -22 238 -22 23 -95 58 -145 68 -28
6 -271 14 -276 9z"/>
</g>
</svg>
